<svg width="20" height="20" xmlns="http://www.w3.org/2000/svg"><g fill="none" fill-rule="evenodd"><circle fill="#FFF" cx="10" cy="10" r="10"/><path d="M11.235 9.998l2.711-2.712a.167.167 0 0 0 0-.235l-1.002-1.002a.167.167 0 0 0-.235 0L9.998 8.76 7.286 6.05a.172.172 0 0 0-.235 0l-1.002 1a.167.167 0 0 0 0 .235L8.76 9.998l-2.711 2.71a.167.167 0 0 0 0 .236l1.002 1.002a.167.167 0 0 0 .235 0l2.712-2.711 2.71 2.711a.167.167 0 0 0 .236 0l1.002-1.002a.167.167 0 0 0 0-.235l-2.711-2.711z" fill="#FF6549" fill-rule="nonzero"/></g></svg>