<svg xmlns="http://www.w3.org/2000/svg" width="127" height="33"><path fill="#3A3A3A" d="M32.134 32.917c-2.193-.32-4.11-1.252-5.575-2.708-1.221-1.214-2.013-2.55-2.597-4.38-.912-2.856-.912-6.529-.001-9.327.883-2.712 2.87-5.073 5.304-6.298 3.369-1.698 8.111-1.591 11.232.252 2.808 1.659 4.509 4.607 4.982 8.634.145 1.23.051 3.826-.177 4.899-.931 4.387-3.644 7.453-7.619 8.608-.428.124-1.092.27-1.476.324-.811.113-3.288.11-4.073-.004zm3.28-1.762c.64-.191 1.43-.935 1.852-1.743.87-1.669 1.258-4.137 1.268-8.055.012-4.911-.755-8.036-2.375-9.672-.68-.687-1.162-.9-2.031-.9-1.93.004-3.154 2.025-3.638 6.005-.222 1.83-.223 6.189-.002 7.788.686 4.95 2.455 7.313 4.926 6.577zm35.556 1.76c-.897-.09-3.638-.549-4.596-.767l-.663-.151.052-3.55c.124-8.549.14-13.215.06-17.753-.08-4.445-.102-4.916-.273-5.573-.217-.833-.529-1.415-.905-1.683-.146-.104-.542-.252-.881-.329-1.126-.253-1.065-.213-1.095-.728-.017-.297.015-.493.09-.553.102-.081 9.337-1.849 9.631-1.844.085.001.097 1.186.053 5.265-.03 2.895-.034 5.264-.008 5.264.025 0 .363-.147.75-.326 1.165-.54 2.238-.775 3.798-.83 1.039-.036 1.52-.013 2.053.098 3.483.723 6.06 3.584 6.962 7.727.235 1.081.322 3.767.166 5.113-.133 1.147-.512 2.692-.907 3.695-1.49 3.783-4.687 6.252-8.927 6.893-.977.148-4.044.166-5.36.033zm3.624-1.804c.657-.125 1.167-.388 1.715-.882 1.374-1.239 2.406-3.797 2.812-6.966.165-1.291.143-4.233-.04-5.31-.496-2.914-1.561-4.83-3.116-5.6-.645-.32-.744-.343-1.509-.343-.547 0-1.017.059-1.417.177l-.6.177-.043 3.317c-.057 4.248.08 14.885.196 15.19.074.195.155.236.521.265.862.068 1.005.065 1.481-.025zm22.373 1.76c-4.486-.812-7.694-4.005-8.742-8.7-.135-.604-.195-1.28-.229-2.587-.053-2.069.114-3.352.646-4.947 1.022-3.063 2.852-5.234 5.51-6.534 2.807-1.373 6.643-1.463 9.127-.214 2.796 1.406 4.441 4.214 4.858 8.292.057.549.09 1.202.073 1.452l-.03.453-6.691.024-6.692.023.026.793c.059 1.838.452 3.464 1.18 4.877.332.643.595.993 1.236 1.642 1.446 1.465 2.884 2.032 5.154 2.032 1.645 0 2.829-.33 4.066-1.132.347-.225.698-.409.78-.409.19 0 .625.562.625.806 0 .4-1.298 1.69-2.563 2.547-1.037.703-2.68 1.34-4.106 1.59-.998.174-3.24.17-4.228-.008zm2.84-14.792l1.573-.055-.057-1.122c-.2-3.954-1.164-6.115-2.728-6.114-1.7.002-3.058 2.195-3.623 5.85-.07.45-.127.982-.128 1.184l-.002.367 1.696-.028c.932-.015 2.403-.052 3.268-.082zm15.245 14.88c-1.61-.174-4.175-.737-5.028-1.105l-.417-.18-.057-2.073c-.031-1.14-.067-2.665-.08-3.388l-.024-1.315.25-.12c.138-.066.415-.128.617-.137l.366-.017.313.771c1.218 3.01 2.647 4.632 4.513 5.125.712.188 2.047.19 2.574.003 1.476-.523 2.286-1.644 2.293-3.177.008-1.815-.986-2.687-4.742-4.159-2.326-.912-3.138-1.381-4.104-2.374-1.043-1.071-1.543-2.29-1.637-3.988-.113-2.051.526-3.78 1.944-5.254 1.427-1.483 3.279-2.287 5.802-2.518 2.222-.204 5.632.27 7.419 1.029l.326.138.058 1.848c.032 1.016.065 2.378.074 3.027l.015 1.18-.438.163c-.692.258-.738.226-1.123-.798-1.079-2.87-2.333-4.228-4.287-4.643-1.19-.252-2.185.02-2.908.795-.564.605-.784 1.142-.838 2.045-.057.978.117 1.506.712 2.16.734.805 1.936 1.5 4.33 2.505 2.933 1.23 4.332 2.274 5.093 3.8.494.991.634 1.783.584 3.306-.037 1.144-.073 1.379-.333 2.147-.845 2.502-2.752 4.15-5.7 4.923-.998.261-1.14.275-3.125.297-1.144.012-2.243.005-2.442-.016zM1.003 32.413c-.075-.03-.113-.256-.113-.675 0-.752-.048-.718 1.402-.988 1.111-.207 1.509-.419 2-1.065.952-1.252 1.157-3.663 1.16-13.592C5.454 6.77 5.275 4.808 4.29 3.367c-.437-.64-1.172-.986-2.405-1.134l-.95-.115-.026-.743L.883.63 1.18.577C1.344.548 7.092.536 13.954.55L26.43.576l.059.363c.032.2.085 2.247.117 4.55l.059 4.188-.643.196c-.969.295-.963.299-1.398-.858-1.07-2.84-2.297-4.478-3.976-5.305-1.158-.57-1.693-.639-4.963-.639h-2.846l-.049.477c-.092.893-.237 6.64-.236 9.347l.001 2.7.836-.005a46.73 46.73 0 0 0 2.016-.076c.975-.058 1.265-.11 1.673-.3 1.003-.466 1.685-1.49 2.102-3.16l.216-.86.738-.027.738-.027v10.905l-.738-.027-.739-.026-.21-.862c-.393-1.62-1.15-2.78-2.087-3.195-.433-.192-1.503-.301-3.573-.364l-.972-.03v2.048c0 2.232.122 5.252.279 6.89.219 2.285.8 3.548 1.845 4.004.2.088.83.23 1.403.315.572.086 1.11.193 1.198.239.22.114.234 1.297.015 1.381-.171.066-16.129.061-16.292-.005zm57.94-.703v-.492l-.7-.059c-1.617-.137-2.06-.3-2.484-.913-.615-.89-.75-2.53-.75-9.177v-5.188l.225-.24c.283-.301 1.167-.723 1.792-.854 1.27-.266 2.893-.036 4.162.589.364.18.678.31.696.292.038-.038 2.123-5.567 2.187-5.8.03-.106-.09-.198-.441-.339-.75-.301-1.402-.405-2.241-.356-2.246.131-4.239 1.628-5.675 4.263-.238.438-.485.796-.548.796-.092.001-.103-.501-.053-2.5l.061-2.5-.217.05c-.12.03-1.927.397-4.016.817-4.48.903-5.103 1.034-5.21 1.1-.044.028-.08.19-.08.36 0 .343-.04.324.978.488 1.4.226 1.893.91 2.102 2.912.272 2.61.163 12.784-.151 14.174-.161.71-.577 1.394-.996 1.637-.155.09-.643.234-1.085.32l-.803.158-.027.477-.028.476h13.302v-.491z"/></svg>