<svg xmlns="http://www.w3.org/2000/svg" width="150" height="18"><g fill="none"><path fill="#000" d="M19.523 17.276h5.456L27.905.579h-5.457L21.37 6.56h-4.73L17.719.58H12.26L9.336 17.276h5.457l1.1-6.248h4.73zM30.996.559l-1.66 9.29a10.64 10.64 0 0 0-.207 2.089c0 4.924 4.315 5.669 6.908 5.669 5.436 0 7.78-1.8 8.631-6.662L46.494.538h-5.457l-1.556 8.731c-.498 2.731-.85 4.159-2.883 4.159-1.328 0-1.971-.704-1.971-2.152 0-.559.083-1.242.249-2.09L36.452.538h-5.456v.02zm44.336 16.717h5.456l.768-4.304h2.573c4.75 0 7.386-2.565 7.386-7.241 0-3.29-2.283-5.172-6.287-5.172h-6.97l-2.926 16.717zm8.506-8.42h-1.577l.727-3.932h1.473c1.203 0 1.846.6 1.846 1.697 0 1.386-.934 2.234-2.469 2.234zM102.116.207c-5.933 0-9.481 3.827-9.481 10.262 0 4.469 2.821 7.159 7.552 7.159 5.933 0 9.481-3.828 9.481-10.262.02-4.49-2.8-7.16-7.552-7.16zm-1.597 13.096c-1.411 0-2.241-1.013-2.241-2.71 0-.641.062-1.2.187-1.841.415-2.193 1.12-4.2 3.34-4.2 1.41 0 2.24 1.014 2.24 2.71 0 .641-.062 1.2-.186 1.841-.415 2.173-1.12 4.2-3.34 4.2zm28.132 3.973h5.457l2.158-12.228h4.107l.789-4.469h-13.963l-.788 4.47h4.357l-2.117 12.227zm-9.045-10.531c-1.722-.538-2.428-.766-2.428-1.573 0-.538.353-1.179 1.39-1.179.768 0 1.411.435 1.66 1.076l4.813-1.303c-.56-2.36-2.593-3.56-6.1-3.56-6.597 0-7.115 4.408-7.115 5.753 0 2.73 1.452 4.407 4.606 5.275.83.228 1.784.476 1.784 1.387 0 .724-.54 1.179-1.473 1.179-.85 0-1.764-.497-2.075-1.366l-4.751 1.283c.519 2.483 2.863 3.89 6.535 3.89 2.801 0 7.49-.745 7.49-5.793.02-2.524-1.41-4.18-4.336-5.07z"/><path fill="#0DBE98" d="M6.286 17.276L9.232.579H.207v16.697zM143.506.58l-2.925 16.696h9.025V.579h-6.1z"/><path fill="#000" d="M53.008 12.352h4.585l.747-4.2h-4.585l.519-3.104h6.41l.789-4.49H49.606L46.68 17.277h5.457zm14.295 0h4.606l.747-4.2H68.07l.518-3.104H75l.788-4.49H63.921l-2.925 16.718h5.456z"/></g></svg>