<svg xmlns="http://www.w3.org/2000/svg" width="66" height="45"><g fill="none"><path fill="#0A9E01" d="M33 .089H.113v10.854H11V33.33h11.113V10.943H33V.09zm10.887 0h22v10.854h-22V.09zm0 21.81V10.943H33V33.33h32.887V21.915l-22-.016zM4.65 37.853v6.784H2.834v-6.784H.113v-1.357h6.805v1.357H4.649zm7.364 4.07H8.24c.06.905.697 1.32 1.298 1.32.457 0 .841-.102 1.082-.378l1.178 1.015c-.505.647-1.419 1.036-2.26 1.036-1.814 0-2.968-1.274-2.968-3.263 0-1.93 1.214-3.28 2.812-3.28 1.683 0 2.656 1.355 2.656 3.153 0 .24-.012.397-.024.397zm-2.716-2.031c-.6 0-.973.222-1.033 1.127h2.163c-.048-.905-.385-1.127-1.13-1.127zm6.694 5.041c-1.647 0-2.956-1.342-2.956-3.27 0-1.93 1.274-3.284 3.028-3.284 1.202 0 1.97.587 2.5 1.39l-1.094 1.102c-.372-.527-.769-.899-1.442-.899-.793 0-1.31.66-1.31 1.69 0 1.007.517 1.678 1.31 1.678.649 0 1.058-.288 1.49-.803l1.058.994c-.613.815-1.335 1.402-2.584 1.402zm7.482-.296v-3.239c0-1.125-.216-1.461-.901-1.461s-.913.336-.913 1.426v3.274h-1.815v-7.743l1.815-.827v2.864c0-.3.727-.551 1.388-.551 1.61 0 2.24 1.102 2.24 2.876v3.381h-1.814z"/><path fill="#343C34" d="M31.915 38.858c-.3-.575-.781-.91-1.538-.91-1.262 0-1.983 1.102-1.983 2.66 0 1.51.733 2.66 1.995 2.66.758 0 1.202-.324 1.646-1.067l1.419.839c-.577 1.186-1.587 1.893-3.113 1.893-2.2 0-3.678-1.678-3.678-4.326 0-2.552 1.538-4.325 3.738-4.325 1.586 0 2.548.767 3.076 1.857l-1.562.72zm6.177 1.582c-.264-.24-.532-.408-.905-.408-.648 0-1.012.277-1.012 1.366v3.238h-1.814v-6.331h1.814v.625c.454-.3.653-.55 1.242-.55.54 0 .92.215 1.136.443l-.461 1.617zm5.341 4.14v-.198c-.454.3-.727.551-1.388.551-1.61 0-2.24-1.102-2.24-2.875v-3.753h1.36v3.609c0 1.126.443 1.461 1.128 1.461.684 0 1.14-.336 1.14-1.426v-3.644h1.814v6.331h-1.885l.071-.056zm6.577.057v-3.239c0-1.125-.102-1.461-.788-1.461-.684 0-.8.336-.8 1.426v3.274h-1.814v-6.332h1.815v.626c0-.3.613-.551 1.274-.551 1.61 0 2.128 1.102 2.128 2.876v3.381H50.01zm6.204.296c-1.647 0-2.956-1.342-2.956-3.27 0-1.93 1.274-3.284 3.028-3.284 1.202 0 1.971.587 2.5 1.39l-1.093 1.102c-.373-.527-.769-.899-1.442-.899-.794 0-1.31.66-1.31 1.69 0 1.007.516 1.678 1.31 1.678.648 0 1.058-.288 1.49-.803l1.058.994c-.615.815-1.335 1.402-2.585 1.402zm7.405-.131v-3.404c0-1.125-.217-1.461-.902-1.461-.684 0-.913.336-.913 1.426v3.274H59.99v-7.743l1.814-.827v2.864c0-.3.727-.551 1.388-.551 1.61 0 2.241 1.102 2.241 2.876v3.381h-1.772l-.042.165z"/></g></svg>