<svg xmlns="http://www.w3.org/2000/svg" width="249" height="169"><defs><linearGradient id="a" x1="-.093%" x2="99.805%" y1="50.015%" y2="50.015%"><stop offset="0%" stop-color="#FE9442"/><stop offset="100%" stop-color="#FE724B"/></linearGradient><linearGradient id="b" x1="50.025%" x2="50.025%" y1="99.94%" y2="-.057%"><stop offset="0%" stop-color="#FEC735"/><stop offset="100%" stop-color="#FE5053"/></linearGradient><linearGradient id="c" x1="-.093%" x2="99.805%" y1="50.047%" y2="50.047%"><stop offset="0%" stop-color="#FE9442"/><stop offset="100%" stop-color="#FE724B"/></linearGradient><linearGradient id="d" x1="50.025%" x2="50.025%" y1="99.949%" y2="-.048%"><stop offset="0%" stop-color="#FEC735"/><stop offset="100%" stop-color="#FE5053"/></linearGradient><linearGradient id="e" x1=".068%" x2="99.966%" y1="50.328%" y2="50.328%"><stop offset="0%" stop-color="#FE9442"/><stop offset="100%" stop-color="#FE724B"/></linearGradient><linearGradient id="f" x1="49.974%" x2="49.974%" y1="99.924%" y2="-.072%"><stop offset="0%" stop-color="#FEC735"/><stop offset="100%" stop-color="#FE5053"/></linearGradient><linearGradient id="g" x1=".068%" x2="99.966%" y1="50.199%" y2="50.199%"><stop offset="0%" stop-color="#FE9442"/><stop offset="100%" stop-color="#FE724B"/></linearGradient><linearGradient id="h" x1="49.974%" x2="49.974%" y1="100.054%" y2=".057%"><stop offset="0%" stop-color="#FEC735"/><stop offset="100%" stop-color="#FE5053"/></linearGradient><linearGradient id="i" x1="-.035%" x2="99.863%" y1="50.111%" y2="50.111%"><stop offset="0%" stop-color="#FE9442"/><stop offset="100%" stop-color="#FE724B"/></linearGradient><linearGradient id="j" x1="49.993%" x2="49.993%" y1="100.029%" y2=".032%"><stop offset="0%" stop-color="#FEC735"/><stop offset="100%" stop-color="#FE5053"/></linearGradient><linearGradient id="k" x1="99.855%" x2="-.031%" y1="49.888%" y2="49.888%"><stop offset="1.642%" stop-color="#FE7F57"/><stop offset="77.75%" stop-color="#FFB187"/></linearGradient><linearGradient id="l" x1="-.044%" x2="99.989%" y1="50.071%" y2="50.071%"><stop offset="0%" stop-color="#FE734B"/><stop offset="100%" stop-color="#FFB187"/></linearGradient><linearGradient id="m" x1=".004%" x2="99.989%" y1="50.061%" y2="50.061%"><stop offset="0%" stop-color="#FFB187"/><stop offset="60.28%" stop-color="#FFCFA5"/></linearGradient><linearGradient id="n" x1=".003%" x2="100.036%" y1="50.082%" y2="50.082%"><stop offset="0%" stop-color="#FE734B"/><stop offset="100%" stop-color="#FFB187"/></linearGradient><linearGradient id="o" x1=".05%" x2="100.036%" y1="50.075%" y2="50.075%"><stop offset="0%" stop-color="#FFB187"/><stop offset="60.28%" stop-color="#FFCFA5"/></linearGradient><linearGradient id="p" x1="-.044%" x2="99.989%" y1="49.948%" y2="49.948%"><stop offset="0%" stop-color="#FE734B"/><stop offset="100%" stop-color="#FFB187"/></linearGradient><linearGradient id="q" x1=".004%" x2="99.989%" y1="49.918%" y2="49.918%"><stop offset="0%" stop-color="#FFB187"/><stop offset="60.28%" stop-color="#FFCFA5"/></linearGradient></defs><g fill="none"><path fill="#FFCFA5" d="M244.554 100.585c2.668.896 4.446 3.34 4.446 6.109s-1.778 5.294-4.446 6.108l-78.247 45.693c-6.548 3.34-14.308 3.34-20.937 0L4.395 76.476c-5.82-3.34-5.9-8.796 0-12.217l78.248-45.693a22.638 22.638 0 0 1 20.936 0l140.975 82.019z"/><path fill="#FFCFA5" d="M244.554 108.585c2.668.896 4.446 3.34 4.446 6.109s-1.778 5.294-4.446 6.108l-78.247 45.693c-6.548 3.34-14.308 3.34-20.937 0L4.395 84.476c-5.82-3.34-5.9-8.796 0-12.217l78.248-45.693a22.638 22.638 0 0 1 20.936 0l140.975 82.019z" opacity=".423"/><path fill="#F32C50" d="M149.252 59.245l-28.09 16.501v8.006l56.424 32.84 28.09-16.502v-8.005"/><path fill="url(#a)" d="M50.838 20.014c4.695 2.696 4.695 7.107.081 9.803-4.614 2.696-12.143 2.696-16.838 0-4.614-2.696-4.695-7.107-.081-9.803 4.614-2.777 12.143-2.777 16.838 0z" transform="translate(121 59)"/><path fill="#FEC736" d="M193.29 88.327c-3.561 2.042-3.48 5.473 0 7.515l-9.39 5.473c-3.562-2.042-9.31-2.042-12.871 0l-37.481-21.892c3.562-2.043 3.48-5.474-.081-7.516l9.39-5.473c3.562 2.042 9.31 2.042 12.872 0l37.561 21.893zm-38.209.49c4.695 2.696 12.143 2.696 16.838 0 4.614-2.696 4.614-7.107-.08-9.803-4.615-2.696-12.144-2.696-16.839 0-4.614 2.696-4.614 7.107.081 9.803z"/><path fill="url(#b)" d="M28.252.245l56.424 32.84-28.09 16.5L.162 16.747l28.09-16.5zm34.729 42.07l9.39-5.473c-3.561-2.042-3.561-5.473 0-7.515L34.81 7.434c-3.562 2.042-9.31 2.042-12.872 0l-9.39 5.473c3.562 2.042 3.562 5.473.08 7.516L50.19 42.315c3.481-2.042 9.229-2.042 12.791 0z" transform="translate(121 59)"/><path fill="#FE734B" d="M177.586 108.586v8.006l28.09-16.502v-8.005z"/><path fill="#F32C50" d="M149.252 50.572l-28.09 16.501v8.006l56.424 32.84 28.09-16.502V83.41"/><path fill="url(#c)" d="M50.838 20.34c4.695 2.697 4.695 7.108.081 9.804-4.614 2.695-12.143 2.695-16.838 0-4.614-2.696-4.695-7.107-.081-9.803 4.614-2.778 12.143-2.778 16.838 0z" transform="translate(121 50)"/><path fill="#FEC736" d="M193.29 79.654c-3.561 2.042-3.48 5.473 0 7.515l-9.39 5.473c-3.562-2.042-9.31-2.042-12.871 0L133.467 70.75c3.562-2.042 3.48-5.473-.081-7.515l9.39-5.473c3.562 2.042 9.31 2.042 12.872 0l37.642 21.893zm-38.209.49c4.695 2.695 12.143 2.695 16.838 0 4.614-2.696 4.614-7.107-.08-9.803-4.615-2.696-12.144-2.696-16.839 0-4.614 2.696-4.614 7.107.081 9.803z"/><path fill="url(#d)" d="M28.252.572l56.424 32.84-28.09 16.5L.162 17.074 28.252.572zm34.729 42.07l9.39-5.473c-3.561-2.042-3.561-5.473 0-7.515L34.81 7.76c-3.562 2.042-9.31 2.042-12.872 0l-9.39 5.473c3.562 2.042 3.562 5.473.08 7.515L50.19 42.642c3.481-2.042 9.229-2.042 12.791 0z" transform="translate(121 50)"/><path fill="#FE734B" d="M177.586 99.913v8.005l28.09-16.501V83.41z"/><path fill="#F32C50" d="M150.72 39.245l-28.152 16.501v8.006l56.549 32.84L207.27 80.09v-8.005"/><path fill="url(#e)" d="M51.275 19.932c4.706 2.696 4.706 7.107.082 9.803-4.625 2.696-12.17 2.696-16.876 0-4.624-2.696-4.706-7.107-.081-9.803 4.706-2.695 12.25-2.695 16.875 0z" transform="translate(122 39)"/><path fill="#FEC736" d="M194.857 68.327c-3.57 2.042-3.49 5.473 0 7.515l-9.412 5.473c-3.57-2.042-9.33-2.042-12.9 0l-37.564-21.892c3.57-2.043 3.489-5.474-.081-7.516l9.411-5.473c3.57 2.042 9.33 2.042 12.9 0l37.646 21.893zm-38.376.49c4.706 2.696 12.17 2.696 16.876 0 4.624-2.696 4.624-7.107-.082-9.803-4.624-2.696-12.17-2.696-16.875 0-4.625 2.696-4.543 7.025.081 9.803z"/><path fill="url(#f)" d="M28.72.245l56.55 32.84-28.153 16.5L.567 16.747 28.722.246zm34.806 42.07l9.412-5.473c-3.57-2.042-3.57-5.473 0-7.515L35.292 7.434c-3.57 2.042-9.33 2.042-12.9 0l-9.41 5.473c3.569 2.042 3.569 5.473.08 7.516l37.646 21.892c3.488-2.042 9.249-2.042 12.818 0z" transform="translate(122 39)"/><path fill="#FE734B" d="M179.117 88.586v8.006l28.072-16.502v-8.005z"/><path fill="#F32C50" d="M150.72 30.245l-28.152 16.501v8.006l56.549 32.84L207.27 71.09v-8.005"/><path fill="url(#g)" d="M51.275 20.014c4.706 2.696 4.706 7.107.082 9.803-4.625 2.696-12.17 2.696-16.876 0-4.624-2.696-4.706-7.107-.081-9.803 4.706-2.696 12.25-2.696 16.875 0z" transform="translate(122 30)"/><path fill="#FEC736" d="M194.857 59.408c-3.57 2.043-3.49 5.474 0 7.516l-9.412 5.473c-3.57-2.042-9.33-2.042-12.9 0l-37.564-21.893c3.57-2.042 3.489-5.473-.081-7.515l9.411-5.474c3.57 2.043 9.33 2.043 12.9 0l37.646 21.893zm-38.376.409c4.706 2.696 12.17 2.696 16.876 0 4.624-2.696 4.624-7.107-.082-9.803-4.624-2.696-12.17-2.696-16.875 0-4.625 2.696-4.543 7.107.081 9.803z"/><path fill="url(#h)" d="M28.72.245l56.55 32.84-28.153 16.5L.567 16.747 28.722.246zm34.806 42.152l9.412-5.473c-3.57-2.042-3.57-5.473 0-7.516L35.292 7.515c-3.57 2.043-9.33 2.043-12.9 0l-9.41 5.474c3.569 2.042 3.569 5.473.08 7.515l37.646 21.893c3.488-2.042 9.249-2.042 12.818 0z" transform="translate(122 30)"/><path fill="#FE734B" d="M179.117 79.586v8.087l28.072-16.501v-8.006z"/><path fill="#F32C50" d="M149.01 19.738L121 36.29v8.03l56.424 32.943 28.09-16.553v-8.03"/><path fill="url(#i)" d="M50.595 20.568c4.695 2.704 4.695 7.13.081 9.833-4.614 2.705-12.143 2.705-16.838 0-4.614-2.704-4.695-7.129-.08-9.833 4.613-2.704 12.142-2.704 16.837 0z" transform="translate(121 19)"/><path fill="#FEC736" d="M193.048 48.992c-3.562 2.048-3.481 5.49 0 7.539l-9.39 5.49c-3.563-2.049-9.31-2.049-12.872 0L133.224 40.06c3.562-2.049 3.48-5.49-.081-7.54l9.39-5.49c3.562 2.05 9.31 2.05 12.872 0l37.643 21.962zm-38.21.41c4.695 2.704 12.143 2.704 16.838 0 4.614-2.705 4.614-7.13-.08-9.834-4.615-2.704-12.144-2.704-16.839 0-4.614 2.704-4.614 7.13.081 9.833z"/><path fill="url(#j)" d="M28.01.738l56.423 32.941-28.09 16.553L0 17.29 28.01.738zM62.738 43.02l9.39-5.49c-3.561-2.05-3.561-5.49 0-7.54L34.568 8.032c-3.562 2.048-9.31 2.048-12.872 0l-9.39 5.49c3.562 2.048 3.562 5.49.08 7.539l37.563 21.96c3.48-2.13 9.228-2.13 12.79 0z" transform="translate(121 19)"/><path fill="#FE734B" d="M177.343 69.232v8.03l28.09-16.47v-8.03z"/><path fill="#F32C50" d="M112 47.685c-7.882-10.957-15.846-21.997-23.728-32.954v10.957c-7.07-4.006-42.257-24.04-44.207-24.613-7.801-2.453-15.358-.572-16.821 4.252A6.143 6.143 0 0 0 27 6.963v18.153c0-.572.081-1.063.244-1.635 1.463-4.825 9.02-6.706 16.821-4.252 1.95.572 37.137 20.606 44.207 24.613V53A2470.093 2470.093 0 0 0 112 47.685z"/><path fill="url(#k)" d="M27 9c0 3.62 3.35 7.561 8.499 9.974.163.08.327.161 29.501 16.33V53C35.826 36.832 35.58 36.751 35.417 36.67c-4.985-2.412-8.335-6.273-8.417-9.813V9z"/><g transform="translate(70 74)"><path fill="url(#l)" d="M28.576 0L.486 16.501v8.006l56.424 32.84L85 40.844V32.84"/><ellipse cx="42.711" cy="24.697" fill="#FFCFA5" rx="6.881" ry="12.008" transform="rotate(-89.838 42.71 24.697)"/><path fill="#FCEADA" d="M72.614 29.163c-3.562 2.043-3.48 5.474 0 7.516l-9.39 5.473c-3.562-2.042-9.31-2.042-12.872 0L12.79 20.26c3.562-2.042 3.481-5.473-.08-7.515L22.1 7.27c3.562 2.043 9.31 2.043 12.871 0l37.643 21.893zm-38.21.409c4.696 2.696 12.144 2.696 16.839 0 4.614-2.696 4.614-7.107-.081-9.803-4.614-2.696-12.143-2.696-16.838 0-4.614 2.696-4.614 7.107.08 9.803z"/><path fill="url(#m)" d="M28.576 0L85 32.84l-28.09 16.5L.486 16.502 28.576 0zm34.729 42.152l9.39-5.473c-3.562-2.042-3.562-5.473 0-7.516L35.133 7.27c-3.562 2.043-9.31 2.043-12.871 0l-9.39 5.474c3.561 2.042 3.561 5.473.08 7.515l37.562 21.893c3.481-2.042 9.229-2.042 12.79 0z"/><path fill="#FFB187" d="M56.91 49.34v8.088l28.009-16.501V32.92z"/></g><g transform="translate(68 63)"><path fill="url(#n)" d="M28.171.245L.081 16.746v8.006l56.424 32.84 28.09-16.502v-8.005"/><ellipse cx="42.338" cy="24.989" fill="#FFCFA5" rx="6.881" ry="12.008" transform="rotate(-89.838 42.338 24.989)"/><path fill="#FCEADA" d="M72.29 29.408c-3.561 2.043-3.48 5.474 0 7.516l-9.39 5.473c-3.562-2.042-9.31-2.042-12.871 0L12.467 20.504c3.562-2.042 3.48-5.473-.081-7.515l9.39-5.474c3.562 2.043 9.31 2.043 12.872 0L72.29 29.408zm-38.29.49c4.695 2.696 12.143 2.696 16.838 0 4.614-2.695 4.614-7.106-.08-9.802-4.615-2.696-12.144-2.696-16.839 0-4.614 2.696-4.614 7.025.081 9.803z"/><path fill="url(#o)" d="M28.171.245l56.424 32.84-28.09 16.5L.08 16.747 28.17.247zM62.9 42.397l9.39-5.473c-3.561-2.042-3.561-5.473 0-7.516L34.73 7.515c-3.562 2.043-9.31 2.043-12.872 0l-9.39 5.474c3.562 2.042 3.562 5.473.08 7.515L50.11 42.397c3.48-2.042 9.228-2.042 12.79 0z"/><path fill="#FFB187" d="M56.586 49.586v8.087l28.01-16.501v-8.006z"/></g><g transform="translate(70 53)"><path fill="url(#p)" d="M28.576.654l-28.09 16.5v8.007L56.91 58 85 41.499v-8.006"/><ellipse cx="42.78" cy="25.28" fill="#FFCFA5" rx="6.881" ry="12.008" transform="rotate(-89.838 42.78 25.28)"/><path fill="#FCEADA" d="M72.614 29.735c-3.562 2.042-3.48 5.473 0 7.516l-9.39 5.473c-3.562-2.042-9.31-2.042-12.872 0L12.79 20.83c3.562-2.042 3.481-5.473-.08-7.516l9.39-5.473c3.562 2.043 9.31 2.043 12.871 0l37.643 21.893zm-38.21.49c4.696 2.696 12.144 2.696 16.839 0 4.614-2.695 4.614-7.107-.081-9.802-4.614-2.696-12.143-2.696-16.838 0-4.614 2.695-4.614 7.025.08 9.802z"/><path fill="url(#q)" d="M28.576.654L85 33.493 56.91 49.994.486 17.154l28.09-16.5zm34.729 42.07l9.39-5.473c-3.562-2.043-3.562-5.474 0-7.516L35.133 7.842c-3.562 2.043-9.31 2.043-12.871 0l-9.39 5.473c3.561 2.043 3.561 5.474.08 7.516l37.562 21.893c3.481-2.042 9.229-2.042 12.79 0z"/><path fill="#FFB187" d="M56.91 49.913V58l28.009-16.501v-8.006z"/></g></g></svg>