<svg id="Layer_1" xmlns="http://www.w3.org/2000/svg" viewBox="0 0 559.7 119.5"><style>.st1{fill:#fff}</style><path d="M175.3 75.9h-2c-.1 0-.2 0-.2.2v2.8c0 .1.1.1.2.1h2.1c.8 0 1.1-.4 1.1-1.1V77c0-.7-.4-1.1-1.2-1.1zm31.8-3.8l-1.3 4.8h2.7l-1.3-4.8zM184 73.9h-1.8c-.7 0-1.1.4-1.1 1.1v2.9c0 .7.4 1.1 1.1 1.1h.7c.8 0 1.2-.4 1.2-1.3V74s0-.1-.1-.1zm39.4 0h-.8c-.8 0-1.2.4-1.2 1.3v2.5c0 .8.4 1.3 1.2 1.3h.8c.7 0 1.1-.4 1.1-1.1V75c0-.7-.3-1.1-1.1-1.1zm290.5-49h-1.8c-.7 0-1.1.4-1.1 1.1v2.9c0 .7.4 1.1 1.1 1.1h.7c.8 0 1.2-.4 1.2-1.3V25s0-.1-.1-.1zm-298.2 49h-.8c-.8 0-1.2.4-1.2 1.3v2.5c0 .8.4 1.3 1.2 1.3h.8c.7 0 1.1-.4 1.1-1.1V75c0-.7-.4-1.1-1.1-1.1zm-90.6 0h-.8c-.4 0-.7.1-.8.3s-.3.5-.3.8v1c0 .1 0 .2.1.2h2.7c.1 0 .1 0 .1-.2v-1c0-.4-.1-.7-.3-.8s-.3-.3-.7-.3zm-20.6-2h-1.3c-.7 0-1.1.4-1.1 1.1v4.9c0 .7.4 1.1 1.1 1.1h1.3c.7 0 1.1-.4 1.1-1.1V73c-.1-.7-.4-1.1-1.1-1.1zm45.7 2h-1.8c-.7 0-1.1.4-1.1 1.1v2.9c0 .7.4 1.1 1.1 1.1h.7c.8 0 1.2-.4 1.2-1.3V74s0-.1-.1-.1zm23.1.8h2c.8 0 1.1-.4 1.1-1.1V73c0-.7-.4-1.1-1.1-1.1h-2c-.1 0-.2.1-.2.2v2.6h.2zm372.3-49.8h-1.8c-.7 0-1.1.4-1.1 1.1v2.5c0 .7.4 1.1 1.1 1.1h.7c.8 0 1.2-.4 1.2-1.3V25c.1 0 0-.1-.1-.1z" fill="none"/><path class="st1" d="M423.4 12.7H5v28.6h418.4c4.7 0 8.5-3.8 8.5-8.5V21.2c0-4.7-3.8-8.5-8.5-8.5z"/><path d="M78.5 88.8c4.7 0 8.5-3.8 8.5-8.5v-9.1c0-4.7-3.8-8.5-8.5-8.5H5v26.1h73.5z" opacity=".43" fill="#fff"/><linearGradient id="SVGID_1_" gradientUnits="userSpaceOnUse" x1="3.5" y1="1" x2="3.5" y2="115.479"><stop offset="0" stop-color="#fff"/><stop offset="1" stop-color="#fff" stop-opacity=".3"/></linearGradient><path fill="url(#SVGID_1_)" d="M5 1H2v114.5h3V12.7z"/><path class="st1" d="M451.4 21.7h-4.7c-.2 0-.3.1-.3.3v9c0 .2.1.3.3.3h.9c.2 0 .3-.1.3-.3v-3.5c0-.1.1-.2.2-.2h2.9c.2 0 .3-.1.3-.3v-.8c0-.2-.1-.3-.3-.3h-2.9c-.1 0-.2-.1-.2-.2v-2.8c0-.1.1-.2.2-.2h3.3c.2 0 .3-.1.3-.3v-.8c-.1.1-.1.1-.3.1zm3-1h-.9c-.2 0-.3.1-.3.3v10c0 .2.1.3.3.3h.9c.2 0 .3-.1.3-.3V21c-.1-.2-.2-.3-.3-.3zm7.8 2.9h-.9c-.2 0-.3.1-.3.3v4.8c0 .8-.4 1.3-1.2 1.3h-.8c-.7 0-1.1-.4-1.1-1.1v-5c0-.2-.1-.3-.3-.3h-.9c-.2 0-.3.1-.3.3V29c0 .7.2 1.3.6 1.7.4.4.9.6 1.7.6h.7c.8 0 1.3-.3 1.5-.8h.1v.5c0 .2.1.3.3.3h.9c.2 0 .3-.1.3-.3v-7.1c0-.2-.1-.3-.3-.3zm6.9 6.4h-3.3l3.3-4.8c.1-.1.2-.3.2-.6v-.7c0-.2-.1-.3-.3-.3h-4.7c-.2 0-.3.1-.3.3v.8c0 .2.1.3.3.3h3.3l-3.5 5c-.1.2-.2.4-.2.6v.4c0 .2.1.3.3.3h5c.2 0 .3-.1.3-.3v-.8c-.1-.1-.2-.2-.4-.2zm10.4-8.3h-4.7c-.2 0-.3.1-.3.3v9c0 .2.1.3.3.3h.9c.2 0 .3-.1.3-.3v-3.5c0-.1.1-.2.2-.2h2.9c.2 0 .3-.1.3-.3v-.8c0-.2-.1-.3-.3-.3h-2.9c-.1 0-.2-.1-.2-.2v-2.8c0-.1.1-.2.2-.2h3.3c.2 0 .3-.1.3-.3v-.8c0 .1-.1.1-.3.1zm3-1h-.9c-.2 0-.3.1-.3.3v10c0 .2.1.3.3.3h.9c.2 0 .3-.1.3-.3V21c-.1-.2-.2-.3-.3-.3zm7.8 2.9h-.9c-.2 0-.3.1-.3.3v4.8c0 .8-.4 1.3-1.2 1.3h-.7c-.7 0-1.1-.4-1.1-1.1v-5c0-.2-.1-.3-.3-.3h-.9c-.2 0-.3.1-.3.3V29c0 .7.2 1.3.6 1.7.4.4.9.6 1.7.6h.7c.8 0 1.3-.3 1.5-.8h.1v.5c0 .2.1.3.3.3h.9c.2 0 .3-.1.3-.3v-7.1c-.1-.2-.2-.3-.4-.3zm6.9 6.4h-3.3l3.3-4.8c.1-.1.2-.3.2-.6v-.7c0-.2-.1-.3-.3-.3h-4.7c-.2 0-.3.1-.3.3v.8c0 .2.1.3.3.3h3.3l-3.5 5c-.1.2-.2.4-.2.6v.4c0 .2.1.3.3.3h5c.2 0 .3-.1.3-.3v-.8c-.1-.1-.2-.2-.4-.2zm10.5-8.3h-4.8c-.2 0-.3.1-.3.3v9c0 .2.1.3.3.3h4.8c.2 0 .2-.1.2-.3v-.8c0-.2-.1-.3-.2-.3h-3.4c-.1 0-.2-.1-.2-.2V27c0-.1.1-.1.2-.1h2.9c.2 0 .3-.1.3-.3V26c0-.2-.1-.3-.3-.3h-2.9c-.1 0-.2 0-.2-.1v-2.5c0-.1.1-.2.2-.2h3.4c.2 0 .2-.1.2-.3v-.8c0-.1 0-.1-.2-.1zm7.5 1.9h-3.4c-.7 0-1.3.2-1.7.6-.4.4-.6 1-.6 1.7v3c0 .7.2 1.3.6 1.7s1 .6 1.7.6h.6c.8 0 1.3-.3 1.5-.8h.1v.6c0 .2.1.3.3.3h.9c.2 0 .3-.1.3-.3v-7.1c0-.2-.1-.3-.3-.3zm-1.2 5.1c0 .8-.4 1.3-1.2 1.3h-.7c-.7 0-1.1-.4-1.1-1.1V26c0-.7.4-1.1 1.1-1.1h1.8c.1 0 .2 0 .2.2v3.6zm7-5.1h-.6c-.4 0-.7.1-1 .2-.3.1-.5.3-.6.6h-.1v-.6c0-.2-.1-.3-.3-.3h-.9c-.2 0-.3.1-.3.3V31c0 .2.1.3.3.3h.9c.2 0 .3-.1.3-.3v-4.8c0-.9.4-1.4 1.2-1.4h.9c.2 0 .3 0 .3-.2v-.8c.1-.1 0-.2-.1-.2zm5.1 0h-.7c-.8 0-1.3.3-1.5.8h-.1v-.5c0-.2-.1-.3-.3-.3h-.9c-.2 0-.3.1-.3.3V31c0 .2.1.3.3.3h.9c.2 0 .3-.1.3-.3v-4.8c0-.9.4-1.3 1.2-1.3h.7c.7 0 1.1.4 1.1 1.1v5c0 .2.1.3.3.3h.9c.2 0 .3-.1.3-.3v-5c0-.8-.2-1.3-.6-1.7-.3-.5-.9-.7-1.6-.7zm5.3-2.8h-1c-.2 0-.2.1-.2.2v1.4c0 .2.1.3.2.3h1c.2 0 .2-.1.2-.3V21c.1-.2 0-.2-.2-.2zm0 2.8h-1c-.2 0-.2.1-.2.3V31c0 .2.1.3.3.3h1c.1 0 .2 0 .2-.1 0 0 .1-.1.1-.2v-7.1c-.1-.2-.2-.3-.4-.3zm5.9 0h-.7c-.8 0-1.3.3-1.5.8h-.1v-.5c0-.2-.1-.3-.3-.3h-.9c-.2 0-.3.1-.3.3V31c0 .2.1.3.3.3h.9c.2 0 .3-.1.3-.3v-4.8c0-.9.4-1.3 1.2-1.3h.7c.7 0 1.1.4 1.1 1.1v5c0 .2.1.3.3.3h.9c.2 0 .3-.1.3-.3v-5c0-.8-.2-1.3-.6-1.7-.3-.5-.8-.7-1.6-.7zm9.7 0h-3.4c-.7 0-1.3.2-1.7.6-.4.4-.6 1-.6 1.7v2.6c0 .7.2 1.3.6 1.7s.9.6 1.7.6h.7c.8 0 1.3-.3 1.5-.8h.1v1.1c0 .7-.4 1.1-1.1 1.1h-2.6c-.2 0-.3.1-.3.3v.8c0 .2.1.2.3.2h2.8c.7 0 1.3-.2 1.7-.6s.6-1 .6-1.7v-7.4c-.1-.1-.1-.2-.3-.2zm-1.2 4.8c0 .8-.4 1.3-1.2 1.3h-.7c-.7 0-1.1-.4-1.1-1.1V26c0-.7.4-1.1 1.1-1.1h1.8c.1 0 .2 0 .2.2v3.3zm8-.3c-.2-.3-.6-.6-1.1-.8l-1.7-.8c-.5-.2-.8-.5-.8-.8v-.2c0-.2.1-.3.2-.4.2-.1.4-.2.7-.2h2.2c.2 0 .2-.1.2-.3v-.7c0-.2-.1-.3-.2-.3h-2.5c-1.4 0-2.1.6-2.1 1.9 0 .5.1.8.3 1.1.2.3.6.6 1.1.8l1.6.8c.5.2.7.5.7.9v.2c0 .5-.3.7-1 .7h-2.5c-.2 0-.3.1-.3.2v.8c0 .2.1.3.3.3h2.8c1.5 0 2.2-.7 2.2-2 .2-.5.1-.9-.1-1.2zM104.7 70.6H103c-.7 0-1.3.2-1.7.6-.4.4-.6 1-.6 1.7v5c0 .7.2 1.3.6 1.7.4.4 1 .6 1.7.6h1.7c.7 0 1.3-.2 1.7-.6s.6-1 .6-1.7v-5c0-.7-.2-1.3-.6-1.7-.4-.4-1-.6-1.7-.6zm.8 7.3c0 .7-.4 1.1-1.1 1.1h-1.3c-.7 0-1.1-.4-1.1-1.1V73c0-.7.4-1.1 1.1-1.1h1.3c.7 0 1.1.4 1.1 1.1v4.9zm6.9 1.1h-.6c-.8 0-1.1-.4-1.1-1.1V74c0-.1.1-.2.2-.2h1.4c.2 0 .3-.1.3-.2v-.8c0-.2-.1-.3-.3-.3h-1.4c-.1 0-.2 0-.2-.1V71c0-.2-.1-.3-.3-.3h-.9c-.2 0-.3.1-.3.3v1.4c0 .1 0 .1-.2.1h-.7c-.2 0-.3.1-.3.3v.8c0 .1 0 .2.1.2 0 0 .1.1.2.1h.7c.1 0 .2 0 .2.2V78c0 .7.2 1.3.6 1.7.4.4 1 .6 1.7.6h.8c.2 0 .3-.1.3-.2v-.8c.1-.2 0-.3-.2-.3zm5.4-6.4h-.7c-.8 0-1.3.3-1.5.8h-.1V70c0-.2-.1-.3-.3-.3h-.9c-.2 0-.3.1-.3.3v10c0 .2.1.3.3.3h.9c.2 0 .3-.1.3-.3v-4.8c0-.9.4-1.3 1.2-1.3h.7c.7 0 1.1.4 1.1 1.1v5c0 .2.1.3.3.3h.9c.2 0 .3-.1.3-.3v-5c0-.8-.2-1.3-.6-1.7-.3-.5-.8-.7-1.6-.7zm7.5 0h-1.2c-.7 0-1.3.2-1.7.6-.4.4-.6 1-.6 1.7v3c0 .7.2 1.3.6 1.7s1 .6 1.7.6h3.2c.2 0 .3-.1.3-.2v-.8c0-.2-.1-.3-.3-.3h-3c-.7 0-1.1-.4-1.1-1.1v-.6c0-.1.1-.2.2-.2h4c.2 0 .3-.1.3-.3V75c0-.7-.2-1.3-.6-1.7-.5-.5-1-.7-1.8-.7zm.9 3.4c0 .1 0 .2-.1.2h-2.7c-.1 0-.1 0-.1-.2v-1c0-.4.1-.7.3-.8s.4-.3.8-.3h.8c.4 0 .7.1.8.3s.3.5.3.8v1zm6.7-3.4h-.6c-.4 0-.7.1-1 .2-.3.1-.5.3-.6.6h-.1v-.6c0-.2-.1-.3-.3-.3h-.9c-.2 0-.3.1-.3.3V80c0 .2.1.3.3.3h.9c.2 0 .3-.1.3-.3v-4.8c0-.9.4-1.4 1.2-1.4h.9c.2 0 .3 0 .3-.2v-.8c.2-.1.1-.2-.1-.2zm9.1-2h-1.7c-.7 0-1.3.2-1.7.6-.4.4-.6 1-.6 1.7v5c0 .7.2 1.3.6 1.7s1 .6 1.7.6h1.7c.7 0 1.3-.2 1.7-.6.4-.4.6-1 .6-1.7v-.7c0-.2-.1-.3-.3-.3h-.9c-.2 0-.3.1-.3.3v.7c0 .7-.4 1.1-1.1 1.1h-1.3c-.7 0-1.1-.4-1.1-1.1V73c0-.7.4-1.1 1.1-1.1h1.3c.7 0 1.1.4 1.1 1.1v.7c0 .2.1.3.3.3h.9c.2 0 .3-.1.3-.3V73c0-.7-.2-1.3-.6-1.7-.4-.5-1-.7-1.7-.7zm9.5 2h-3.4c-.7 0-1.3.2-1.7.6-.4.4-.6 1-.6 1.7v3c0 .7.2 1.3.6 1.7s1 .6 1.7.6h.6c.8 0 1.3-.3 1.5-.8h.1v.6c0 .2.1.3.3.3h.9c.2 0 .3-.1.3-.3v-7.1c0-.2-.1-.3-.3-.3zm-1.2 5.1c0 .8-.4 1.3-1.2 1.3h-.7c-.7 0-1.1-.4-1.1-1.1V75c0-.7.4-1.1 1.1-1.1h1.8c.1 0 .2 0 .2.2v3.6zm7-1.4l-1.7-.8c-.5-.2-.8-.5-.8-.8v-.2c0-.2.1-.3.2-.4.2-.1.4-.2.7-.2h2.2c.2 0 .2-.1.2-.3v-.7c0-.2-.1-.3-.2-.3h-2.5c-1.4 0-2.1.6-2.1 1.9 0 .5.1.8.3 1.1.2.3.6.6 1.1.8l1.6.8c.5.2.7.5.7.9v.2c0 .5-.3.7-1 .7h-2.5c-.2 0-.3.1-.3.2v.8c0 .2.1.3.3.3h2.8c1.5 0 2.2-.7 2.2-2 0-.5-.1-.9-.3-1.2 0-.3-.4-.6-.9-.8zm6.6-3.7h-.7c-.8 0-1.3.3-1.5.8h-.1V70c0-.2-.1-.3-.3-.3h-.9c-.2 0-.3.1-.3.3v10c0 .2.1.3.3.3h.9c.2 0 .3-.1.3-.3v-4.8c0-.9.4-1.3 1.2-1.3h.7c.7 0 1.1.4 1.1 1.1v5c0 .2.1.3.3.3h.9c.2 0 .3-.1.3-.3v-5c0-.8-.2-1.3-.6-1.7-.3-.5-.9-.7-1.6-.7zm12.7 2.7c.8-.2 1.2-.8 1.2-1.7v-.7c0-.7-.2-1.3-.6-1.7s-1-.6-1.7-.6h-3.6c-.2 0-.3.1-.3.3V80c0 .2.1.3.3.3h3.7c.7 0 1.3-.2 1.7-.6.4-.4.6-1 .6-1.7v-1c0-.5-.1-.9-.4-1.2s-.5-.4-.9-.5zm-3.5-3.3c0-.1.1-.2.2-.2h2c.7 0 1.1.4 1.1 1.1v.7c0 .7-.4 1.1-1.1 1.1h-2c-.1 0-.2 0-.2-.1V72zm3.4 6c0 .7-.4 1.1-1.1 1.1h-2.1c-.1 0-.2 0-.2-.1v-2.8c0-.1.1-.2.2-.2h2c.8 0 1.2.4 1.2 1.1v.9zm8.8-5.4H182c-.7 0-1.3.2-1.7.6-.4.4-.6 1-.6 1.7v3c0 .7.2 1.3.6 1.7s1 .6 1.7.6h.6c.8 0 1.3-.3 1.5-.8h.1v.6c0 .2.1.3.3.3h.9c.2 0 .3-.1.3-.3v-7.1c-.1-.2-.2-.3-.4-.3zm-1.2 5.1c0 .8-.4 1.3-1.2 1.3h-.7c-.7 0-1.1-.4-1.1-1.1V75c0-.7.4-1.1 1.1-1.1h1.8c.1 0 .2 0 .2.2v3.6zm7.8-5.1h-2.2c-.7 0-1.3.2-1.7.6-.4.4-.6 1-.6 1.7v3c0 .7.2 1.3.6 1.7s1 .6 1.7.6h2.2c.2 0 .3-.1.3-.2v-.8c0-.2-.1-.3-.3-.3h-2c-.7 0-1.1-.4-1.1-1.1V75c0-.7.4-1.1 1.1-1.1h2c.2 0 .3-.1.3-.2v-.8c-.1-.2-.1-.3-.3-.3zm5.1 3.8l2.1-3.4c.1-.1.1-.2 0-.2s-.1-.1-.2-.1h-1.1c-.2 0-.3.1-.4.2l-2 3.3c-.1.1-.1.3 0 .4l2.1 3.5c.1.2.3.3.5.3h1c.1 0 .2 0 .2-.1v-.2l-2.2-3.7zm-2.2-6.7h-.9c-.2 0-.3.1-.3.3v10c0 .2.1.3.3.3h.9c.2 0 .3-.1.3-.3V70c-.1-.2-.2-.3-.3-.3zm13.1.9h-1.5c-.2 0-.3.1-.4.3l-2.6 9.1c0 .2 0 .3.2.3h1.1c.1 0 .2-.1.3-.3l.6-2h3.3l.6 2c0 .1 0 .2.1.2s.1.1.2.1h1.1c.2 0 .2-.1.2-.3l-2.6-9.1c-.3-.2-.4-.3-.6-.3zm-2.1 6.3l1.3-4.8h.1l1.3 4.8h-2.7zm10.2-4.3h-.8c-.8 0-1.3.3-1.5.8h-.1v-.5c0-.2-.1-.3-.3-.3h-.9c-.2 0-.3.1-.3.3v9.3c0 .2.1.3.3.3h.9c.2 0 .3-.1.3-.3v-2.7h.1c.2.5.7.8 1.5.8h.8c.7 0 1.3-.2 1.7-.6s.6-1 .6-1.7v-3c0-.8-.2-1.3-.6-1.7-.4-.5-1-.7-1.7-.7zm.8 5.3c0 .7-.4 1.1-1.1 1.1h-.8c-.8 0-1.2-.4-1.2-1.3v-2.5c0-.9.4-1.3 1.2-1.3h.8c.7 0 1.1.4 1.1 1.1v2.9zm7-5.3h-.8c-.8 0-1.3.3-1.5.8h-.1v-.5c0-.2-.1-.3-.3-.3h-.9c-.2 0-.3.1-.3.3v9.3c0 .2.1.3.3.3h.9c.2 0 .3-.1.3-.3v-2.7h.1c.2.5.7.8 1.5.8h.8c.7 0 1.3-.2 1.7-.6s.6-1 .6-1.7v-3c0-.8-.2-1.3-.6-1.7-.5-.5-1-.7-1.7-.7zm.7 5.3c0 .7-.4 1.1-1.1 1.1h-.8c-.8 0-1.2-.4-1.2-1.3v-2.5c0-.9.4-1.3 1.2-1.3h.8c.7 0 1.1.4 1.1 1.1v2.9zm6.8-1.6l-1.7-.8c-.5-.2-.8-.5-.8-.8v-.2c0-.2.1-.3.2-.4.2-.1.4-.2.7-.2h2.2c.2 0 .2-.1.2-.3v-.7c0-.2-.1-.3-.2-.3h-2.5c-1.4 0-2.1.6-2.1 1.9 0 .5.1.8.3 1.1.2.3.6.6 1.1.8l1.6.8c.5.2.7.5.7.9v.2c0 .5-.3.7-1 .7h-2.5c-.2 0-.3.1-.3.2v.8c0 .2.1.3.3.3h2.8c1.5 0 2.2-.7 2.2-2 0-.5-.1-.9-.3-1.2 0-.3-.3-.6-.9-.8z"/></svg>