<svg xmlns="http://www.w3.org/2000/svg" width="246" height="179"><defs><linearGradient id="a" x1="87.837%" x2="0%" y1="4.916%" y2="85.078%"><stop offset="0%" stop-color="#FE5053"/><stop offset="100%" stop-color="#FEC735"/></linearGradient><linearGradient id="b" x1="281.664%" x2="82.49%" y1="-29.879%" y2="44.736%"><stop offset="0%" stop-color="#FE5053"/><stop offset="100%" stop-color="#FEC735"/></linearGradient></defs><g fill="none"><path fill="#FFCFA5" d="M241.643 111.935a6.321 6.321 0 0 1 4.357 6.004 6.321 6.321 0 0 1-4.357 6.004l-77.282 44.809a22.852 22.852 0 0 1-20.651 0L4.347 88.298c-5.764-3.286-5.828-8.658 0-11.945l77.346-44.808a22.788 22.788 0 0 1 20.715 0l139.235 80.39z"/><path fill="#FFCFA5" d="M241.643 119.718a6.321 6.321 0 0 1 4.357 6.004 6.321 6.321 0 0 1-4.357 6.004l-77.282 44.808a22.852 22.852 0 0 1-20.651 0L4.347 96.081c-5.764-3.287-5.828-8.659 0-11.945l77.346-44.809a22.788 22.788 0 0 1 20.715 0l139.235 80.39z" opacity=".423"/><path fill="#278704" d="M91.21 52.874c5.289 3.36 8.616 8.986 8.953 15.141a8.21 8.21 0 0 1-.74 3.585l-10.676-6.02V51.885a9.57 9.57 0 0 1 2.464.99zm14.158-16.295a12.363 12.363 0 0 1 5.695 9.725c0 3.6-2.576 5.05-5.722 3.25a12.47 12.47 0 0 1-5.695-9.778c.027-3.573 2.576-4.997 5.722-3.197z"/><path fill="#F32C50" d="M88.228 1.034l1.696-.81a5.046 5.046 0 0 1 2.975 0l-1.696.81a4.858 4.858 0 0 0-2.975.104v-.104zm2.595.195l1.54-.71c.371.079.725.189 1.055.328l-1.514.71a6.934 6.934 0 0 0-1.081-.328zm10.201 8.391c.117.715.177 1.438.179 2.163 0 6.166-4.44 8.656-9.834 5.573a16.093 16.093 0 0 1-2.622-1.808V2.594l12.277 7.025zm68.126 63.791a12.45 12.45 0 0 1 5.749 9.756c0 3.574-2.577 5.025-5.723 3.225a12.421 12.421 0 0 1-5.695-9.756c-.027-3.574 2.522-5.025 5.668-3.225z"/><path fill="#FCEADA" d="M173.755 54.593a19.588 19.588 0 0 0 8.929 15.457v34.873c-4.924-2.712-8.901-.57-8.929 5.071L100.708 67.8a19.588 19.588 0 0 0-8.847-15.375V17.55c4.897 2.712 8.9.543 8.928-5.098l72.966 42.14zM136.9 84.365c10.819 6.313 19.69 1.088 19.743-11.702-.674-14.023-7.971-26.878-19.634-34.586-10.818-6.313-19.716-1.061-19.743 11.701.674 14.024 7.971 26.878 19.634 34.587zm31.743 1.902c3.068 1.818 5.784.326 5.784-3.256a12.588 12.588 0 0 0-5.703-9.85c-3.15-1.818-5.702-.353-5.73 3.256a12.561 12.561 0 0 0 5.703 9.85h-.054zm-62.823-36.98c3.15 1.816 5.702.352 5.73-3.282a12.497 12.497 0 0 0-5.703-9.816c-3.15-1.816-5.702-.38-5.73 3.227a12.605 12.605 0 0 0 5.703 9.87z"/><path fill="#F32C50" d="M186.79 118.375l1.59-1.117c.106 1.408-.503 2.767-1.59 3.552l-1.512 1.118c1.066-.798 1.646-2.16 1.512-3.553zm-.993-60.035v13.779a11.199 11.199 0 0 1-2.632-1.08c-6.12-3.995-9.97-10.73-10.342-18.097-.005-.703.058-1.405.188-2.096l12.786 7.493z"/><path fill="#F32C50" d="M182.12 53.374a11.613 11.613 0 0 1 5.234 9.115l-.162 55.7c0 3.329-2.36 4.693-5.261 3.029L91.386 68.574a11.558 11.558 0 0 1-5.234-9.115l.163-55.672c0-3.33 2.359-4.803 5.26-3.03l90.546 52.617zm2.468 17.466V59.023l-11.063-6.413a9.254 9.254 0 0 0-.163 1.8l-73.217-42.49c.045-.673.035-1.349-.028-2.02L88.972 3.432v11.926a14.65 14.65 0 0 0 2.386 1.774v35.096a9.323 9.323 0 0 0-2.413-1.01V65.19l10.576 6.14a8.561 8.561 0 0 0 .732-3.629l73.217 42.464a15.73 15.73 0 0 0 .705 4.503l10.522 6.086v-14.11a14.675 14.675 0 0 0-2.305-1.692l-.054-35.013a9.729 9.729 0 0 0 2.332.982l-.082-.081z"/><path fill="#F32C50" d="M117.291 49.58c.684 13.949 8.09 26.735 19.926 34.402 10.979 6.28 19.981 1.083 20.036-11.639-.684-13.95-8.09-26.735-19.926-34.402-11.033-6.28-20.008-1.056-20.036 11.639zm21.189 23.332c2.305 1.326 4.638 1.759 5.187-1.57-.549 3.329-2.882 2.896-5.187 1.57z"/><path fill="#FFF" d="M134.146 77.695v-3.923c-2.198-1.656-4.275-3.524-5.83-5.779l1.02-4.78c1.604 2.22 3.56 4.416 5.745 5.755.729.446 3.158 1.574 3.036-.458-.133-2.09-2.04-4.052-3.485-5.508-3.194-3.195-6.11-7.2-6.11-11.828 0-3.276 2.114-5.93 5.673-4.275V43c1.08.681 2.161 1.374 3.23 2.055v3.641c1.87 1.257 3.522 2.854 4.907 4.593-.328 1.538-.668 3.077-.996 4.615-1.458-1.808-3.207-3.488-4.992-4.792-.814-.599-2.745-1.15-2.623.494.158 2.255 2.538 4.357 3.983 5.896 3.097 3.277 5.526 7.152 5.611 11.686.061 3.5-2.368 5.802-5.938 4.322v4.24a493.17 493.17 0 0 1-3.231-2.055z"/><path fill="#F32C50" d="M182.727 105.093c.91.523 1.764 1.13 2.551 1.815v15.02l-11.675-6.53a16.37 16.37 0 0 1-.78-4.83c.03-6.09 4.442-8.55 9.904-5.475zm4.306-42.317l1.878-1.034-.197 55.493-1.879 1.06zM91.86 1.578l1.551-1.06 90.83 52.382-1.551 1.06z"/><path d="M181.989 53.659l1.631-1.098a12.189 12.189 0 0 1 5.295 7.543l-1.603 1.098a12.33 12.33 0 0 0-5.323-7.543zm5.323 7.543l1.603-1.098c.143.61.22 1.233.23 1.858l-1.632 1.098a8.56 8.56 0 0 0-.2-1.858z" fill="#F32C50"/><path fill="url(#a)" d="M4.709 62.439v3.269A52.269 52.269 0 0 0 7.11 76.961a68.745 68.745 0 0 0 14.765 25.53 54.173 54.173 0 0 0 8.624 7.548l.627.409 1.338-.763-1.338.763c.71.463 1.42.926 2.156 1.335l1.42-.818-1.42.818 1.147.627 1.146.599.491.218 1.583-.926-1.583.926c6.85 3.188 12.99 3.215 17.603.545l9.06-5.259a13.343 13.343 0 0 0 2.975-2.261c.63-.67 1.205-1.39 1.72-2.153a31.698 31.698 0 0 1-.983 4.796v.354a14.86 14.86 0 0 1-.573 1.662l5.922-3.433 1.2-.681-7.122 4.114c0 .381-.273.736-.437 1.09-.164.354-.355.79-.546 1.171l4.94-2.86 3.084-1.772a4.204 4.204 0 0 0 1.064-.626c.191-.382.355-.763.546-1.172.19-.409.3-.708.436-1.09l-1.391.818 1.01-.6s.3 0 .381-.218l.574-1.662-2.92 1.553h.136l2.238-1.308a2.13 2.13 0 0 0 .546-.3v-.353a36.102 36.102 0 0 0 1.31-10v-3.025a3.482 3.482 0 0 0 0-.517 57.87 57.87 0 0 0-1.802-10.681 69.03 69.03 0 0 0-.737-2.725c0-.218-.136-.436-.218-.68l-1.419.844-3.084 1.77 4.503-2.724c0-.436-.3-.899-.437-1.362a82.475 82.475 0 0 0-17.084-28.936l-1.419.817-3.11 1.798 4.53-2.724-.492-.518a47.16 47.16 0 0 0-1.992-2.044l-.873-.844a59.067 59.067 0 0 0-7.615-6.13l-5.758 3.35 5.758-3.35-.409-.3-5.922 3.432 5.922-3.433a52.731 52.731 0 0 0-2.538-1.553l-6.74 4.087 6.686-3.923a47.79 47.79 0 0 0-5.459-2.725c-.982-.354-1.937-.708-2.892-.98l-1.092-.3h-.41l-1.664-.246-1.174-.163-1.31-.136a18.337 18.337 0 0 0-10.561 2.152l-9.06 5.259a18.255 18.255 0 0 1 10.56-2.262l1.283.136 1.174.164 1.72.354h.409l1.119.3a25.5 25.5 0 0 1 2.729 1.008l.49.218a15.056 15.056 0 0 0-6.467 1.771l-3.957 2.452-4.967 2.916c-4.503 2.724-7.532 7.847-8.187 15.203l1.664-.98-1.664.98v1.798c-.137.437-.164.873-.164 1.309zm36.297 43.268l1.282-.736a40.255 40.255 0 0 1-3.657-2.561l1.01-.6a25.05 25.05 0 0 0 3.903 1.036l9.06-5.259V90.94c-1.72-.845-5.895-2.915-9.934-5.204l8.624-5.014c2.156-1.253 2.43-4.768 2.43-6.566V69.93a53.883 53.883 0 0 1 6.904 24.686 22.507 22.507 0 0 1-4.094 13.896 23.144 23.144 0 0 1-14.218-3.57l-1.31.764zM19.992 42.33l-2.893 1.662c.333-.521.697-1.021 1.092-1.498a27.627 27.627 0 0 1 1.8-.164zM38.03 93.391l-5.895 3.406 5.895-3.406zm4.585 2.343l-1.829 1.036-.6-.354v-1.908l2.429 1.226zM21.984 81.13v1.662a54.428 54.428 0 0 1-6.96-24.822 22.67 22.67 0 0 1 4.094-13.869c4.985-.386 9.96.868 14.164 3.57a43.052 43.052 0 0 1 3.794 2.724l-1.31.736a31.942 31.942 0 0 0-3.493-1.008l-8.98 5.177v6.703c2.73 1.28 7.588 3.841 9.88 5.177l-8.706 5.013c-1.937 1.144-2.456 4.196-2.456 6.785l9.06-5.286 2.73 1.607c1.283.763 2.129.981 2.729.709l7.56-4.387a18.9 18.9 0 0 1 .6 4.632v3.378l-3.302-1.934c-1.092-.627-1.801-.763-2.21-.518l-7.506 4.196a21.248 21.248 0 0 1-.682-5.45l-7.942 4.606-1.064.599zm11.19-23.977l1.991-1.145.492.273v2.098a23.45 23.45 0 0 0-2.484-1.172v-.054zm25.57 51.442c-.354.572-.736 1.035-1.118 1.553-.6 0-1.228.164-1.883.19l3.002-1.743z" transform="translate(63.316)"/><path fill="#F09A12" d="M94.975 72.638v2.28l-8.823 5.502.026-2.252zM138.05 106.4a18.004 18.004 0 0 1-7.038 7.745l-9.05 5.226a18.004 18.004 0 0 0 7.039-7.745l7.61-4.414 1.44-.812z"/><path fill="#F09A12" d="M126.312 94.327c0 18.202-12.96 25.554-28.852 16.398-15.892-9.155-28.687-31.21-28.632-49.412.054-18.202 12.987-25.5 28.824-16.398 15.837 9.1 28.714 31.347 28.66 49.412zM97.46 109.25c15.125 8.719 27.4 1.722 27.4-15.632 0-17.355-12.166-38.262-27.4-47.117-15.234-8.855-27.4-1.695-27.4 15.605s12.166 38.453 27.4 47.144z"/><path fill="url(#b)" d="M68.506 97.999c0 21.88-15.456 30.714-34.389 19.72C15.184 106.722 0 80.084 0 58.176c0-21.907 15.456-30.714 34.335-19.72C53.213 49.454 68.56 76.12 68.506 98zm-34.362 12.964c15.755 9.162 28.55 1.805 28.604-16.41.054-18.215-12.659-40.342-28.413-49.504C18.58 35.887 5.813 43.271 5.759 61.46c-.055 18.188 12.685 40.45 28.385 49.504z" transform="translate(63.316)"/><path fill="#EE9547" d="M69.061 62.87c-.621-17.81 11.807-25.435 27.555-17.026 15.747 8.409 29.182 29.593 29.664 47.41.481 17.816-11.781 25.378-27.556 16.998-15.774-8.38-29.099-29.624-29.663-47.382z"/><path fill="#FEC735" d="M96.09 99.26v-5.23c-2.932-2.209-5.7-4.699-7.774-7.706.454-2.13.907-4.243 1.36-6.373 2.138 2.96 4.745 5.888 7.66 7.673.972.595 4.21 2.099 4.048-.61-.178-2.788-2.72-5.403-4.647-7.345-4.259-4.26-8.145-9.6-8.145-15.77 0-4.369 2.817-7.908 7.562-5.7V53c1.441.908 2.882 1.832 4.307 2.74v4.855c2.494 1.676 4.696 3.805 6.542 6.123-.437 2.052-.89 4.103-1.328 6.154-1.943-2.411-4.274-4.65-6.655-6.389-1.085-.798-3.66-1.534-3.498.658.21 3.007 3.385 5.81 5.312 7.861 4.129 4.37 7.368 9.537 7.481 15.582.08 4.667-3.158 7.736-7.918 5.763V102a657.548 657.548 0 0 1-4.308-2.74z"/></g></svg>