<svg xmlns="http://www.w3.org/2000/svg" width="250" height="192"><defs><linearGradient id="a" x1="-22.028%" x2="120.758%" y1="71.021%" y2="28.82%"><stop offset="24.49%" stop-color="#FE5053"/><stop offset="100%" stop-color="#FEC735"/></linearGradient><linearGradient id="b" x1="84.431%" x2="11.417%" y1="95.834%" y2="10.082%"><stop offset="11.43%" stop-color="#FE5053"/><stop offset="100%" stop-color="#FEC735"/></linearGradient><linearGradient id="c" x1="107.071%" x2="-30.429%" y1="89.965%" y2="10.488%"><stop offset="0%" stop-color="#FE5053"/><stop offset="72.71%" stop-color="#FEA53D"/></linearGradient><linearGradient id="d" x1="74.948%" x2="25.082%" y1="93.191%" y2="6.821%"><stop offset="0%" stop-color="#FE5053"/><stop offset="100%" stop-color="#FEC735"/></linearGradient><linearGradient id="e" x1="-21.95%" x2="120.836%" y1="71.112%" y2="28.91%"><stop offset="24.49%" stop-color="#FE5053"/><stop offset="100%" stop-color="#FEC735"/></linearGradient><linearGradient id="f" x1="84.515%" x2="11.502%" y1="95.559%" y2="9.807%"><stop offset="11.43%" stop-color="#FE5053"/><stop offset="100%" stop-color="#FEC735"/></linearGradient><linearGradient id="g" x1="106.348%" x2="-31.153%" y1="89.732%" y2="10.255%"><stop offset="0%" stop-color="#FE5053"/><stop offset="72.71%" stop-color="#FEA53D"/></linearGradient><linearGradient id="h" x1="75.032%" x2="25.166%" y1="93.29%" y2="6.92%"><stop offset="0%" stop-color="#FE5053"/><stop offset="100%" stop-color="#FEC735"/></linearGradient><linearGradient id="i" x1="-21.983%" x2="119.568%" y1="71.121%" y2="28.972%"><stop offset="24.49%" stop-color="#FE5053"/><stop offset="100%" stop-color="#FEC735"/></linearGradient><linearGradient id="j" x1="84.402%" x2="11.447%" y1="95.665%" y2="9.937%"><stop offset="11.43%" stop-color="#FE5053"/><stop offset="100%" stop-color="#FEC735"/></linearGradient><linearGradient id="k" x1="105.88%" x2="-30.836%" y1="89.805%" y2="9.996%"><stop offset="0%" stop-color="#FE5053"/><stop offset="72.71%" stop-color="#FEA53D"/></linearGradient><linearGradient id="l" x1="74.798%" x2="24.972%" y1="93.111%" y2="6.81%"><stop offset="0%" stop-color="#FE5053"/><stop offset="100%" stop-color="#FEC735"/></linearGradient><linearGradient id="m" x1="-.174%" x2="100.023%" y1="49.987%" y2="49.987%"><stop offset="0%" stop-color="#FE5053"/><stop offset="100%" stop-color="#FEC735"/></linearGradient><linearGradient id="n" x1="-.293%" x2="100.066%" y1="50.118%" y2="50.118%"><stop offset="0%" stop-color="#FE5053"/><stop offset="100%" stop-color="#FEC735"/></linearGradient><linearGradient id="o" x1="-.146%" x2="100.213%" y1="50.433%" y2="50.433%"><stop offset="0%" stop-color="#FE5053"/><stop offset="100%" stop-color="#FEC735"/></linearGradient><linearGradient id="p" x1=".023%" x2="99.827%" y1="49.8%" y2="49.8%"><stop offset="0%" stop-color="#FE5053"/><stop offset="100%" stop-color="#FEC735"/></linearGradient></defs><g fill="none" fill-rule="evenodd"><path fill="#FFCFA5" fill-rule="nonzero" d="M244.903 123.95c2.67.89 4.45 3.32 4.45 6.075 0 2.755-1.78 5.266-4.45 6.076l-78.317 45.448c-6.554 3.322-14.32 3.322-20.955 0L4.531 99.97c-5.825-3.32-5.906-8.749 0-12.151L82.848 42.37a22.784 22.784 0 0 1 20.955 0l141.1 81.58z"/><path fill="#FFCFA5" fill-rule="nonzero" d="M244.903 131.889c2.67.89 4.45 3.321 4.45 6.076 0 2.754-1.78 5.265-4.45 6.076l-78.317 45.448c-6.554 3.321-14.32 3.321-20.955 0l-141.1-81.58c-5.825-3.322-5.906-8.75 0-12.152l78.317-45.448a22.784 22.784 0 0 1 20.955 0l141.1 81.58z" opacity=".423"/><ellipse cx="76.974" cy="83.039" fill="#FFF" fill-rule="nonzero" stroke="#FFF" stroke-width="2.427" rx="8.252" ry="13.61" transform="rotate(-72.65 76.974 83.039)"/><ellipse cx="179.231" cy="140.66" fill="#FFF" fill-rule="nonzero" stroke="#FFF" stroke-width="2.427" rx="8.252" ry="13.61" transform="rotate(-72.65 179.23 140.66)"/><path stroke="#FFF" stroke-width="2.427" d="M88.916 88.87l22.249 12.882"/><path stroke="#FFF" stroke-width="1.618" d="M144.822 121.195l22.25 12.88"/><g fill-rule="nonzero"><path fill="#F32C50" d="M80.34 86.36a3.248 3.248 0 0 1-3.236-3.241V61.894a3.248 3.248 0 0 1 3.236-3.24 3.248 3.248 0 0 1 3.236 3.24v21.225c-.08 1.782-1.456 3.24-3.236 3.24zm-7.12-3.322a3.248 3.248 0 0 1-3.236-3.24V58.571a3.248 3.248 0 0 1 3.236-3.24 3.248 3.248 0 0 1 3.236 3.24v21.225a3.248 3.248 0 0 1-3.236 3.241z"/><path fill="url(#a)" d="M2.589 40.83c-.647 0-1.375-.243-1.86-.81-.972-1.053-.89-2.673.08-3.645 7.929-7.453 6.473-15.636 6.392-15.96-.243-1.377.647-2.754 2.022-2.997 1.376-.243 2.751.648 2.994 2.025.08.486 2.184 11.26-7.929 20.74-.405.404-1.052.647-1.699.647z" transform="translate(63.107 20.253)"/><path fill="#F32C50" d="M77.023 59.301c-4.45 0-8.01-1.782-8.01-3.888v1.863c0 4.375 3.56 8.02 8.01 8.02 4.369 0 8.01-3.564 8.01-8.02v-1.863c0 2.106-3.56 3.888-8.01 3.888z"/><path fill="url(#b)" d="M13.916 15.311c-4.37 0-8.01 3.565-8.01 8.02v11.747c0 2.188 3.56 3.89 8.01 3.89 4.45 0 8.01-1.783 8.01-3.89V23.332c0-4.375-3.641-8.02-8.01-8.02z" transform="translate(63.107 20.253)"/><path fill="url(#c)" d="M20.388 45.934a2.28 2.28 0 0 1-1.213-.324c-1.295-.648-1.78-2.187-1.133-3.483 5.583-10.694-1.214-19.524-1.456-19.93-.89-1.134-.647-2.754.404-3.645 1.133-.891 2.751-.73 3.56.405.405.486 9.143 11.747 2.023 25.438-.324 1.053-1.214 1.54-2.185 1.54z" transform="translate(63.107 20.253)"/><path fill="url(#d)" d="M12.783.73c4.37 0 8.01 3.564 8.01 8.02 0 4.374-3.56 8.02-8.01 8.02-4.369 0-8.01-3.565-8.01-8.02 0-4.375 3.641-8.02 8.01-8.02z" transform="translate(63.107 20.253)"/></g><g fill-rule="nonzero"><path fill="#F32C50" d="M182.605 143.96a3.248 3.248 0 0 1-3.236-3.241v-21.225a3.248 3.248 0 0 1 3.236-3.24 3.248 3.248 0 0 1 3.236 3.24v21.225a3.248 3.248 0 0 1-3.236 3.24zm-7.039-3.322a3.248 3.248 0 0 1-3.236-3.24v-21.226a3.248 3.248 0 0 1 3.236-3.24 3.248 3.248 0 0 1 3.237 3.24v21.225c-.081 1.783-1.538 3.241-3.237 3.241z"/><path fill="url(#e)" d="M2.913 40.101c-.648 0-1.376-.243-1.861-.81-.971-1.053-.89-2.673.08-3.645 7.93-7.454 6.473-15.636 6.392-15.96-.242-1.377.648-2.754 2.023-2.997 1.375-.243 2.75.648 2.993 2.025.081.486 2.185 11.26-7.928 20.74-.405.404-1.052.647-1.7.647z" transform="translate(165.049 78.582)"/><path fill="#F32C50" d="M179.288 116.901c-4.45 0-8.01-1.782-8.01-3.888v1.863c0 4.375 3.56 8.02 8.01 8.02 4.369 0 8.01-3.564 8.01-8.02v-1.863c0 2.106-3.56 3.888-8.01 3.888z"/><path fill="url(#f)" d="M14.24 14.663c-4.37 0-8.01 3.565-8.01 8.02V34.43c0 2.188 3.56 3.889 8.01 3.889 4.45 0 8.01-1.782 8.01-3.889V22.684c0-4.456-3.56-8.02-8.01-8.02z" transform="translate(165.049 78.582)"/><path fill="url(#g)" d="M20.793 45.286a2.28 2.28 0 0 1-1.214-.324c-1.294-.648-1.78-2.187-1.132-3.484 5.582-10.693-1.214-19.524-1.457-19.929-.89-1.134-.647-2.754.405-3.645 1.133-.891 2.75-.73 3.56.405.404.486 9.142 11.747 2.022 25.438-.404.972-1.294 1.54-2.184 1.54z" transform="translate(165.049 78.582)"/><path fill="url(#h)" d="M13.107 0c4.369 0 8.01 3.565 8.01 8.02 0 4.375-3.56 8.02-8.01 8.02-4.37 0-8.01-3.564-8.01-8.02 0-4.374 3.64-8.02 8.01-8.02z" transform="translate(165.049 78.582)"/></g><ellipse cx="212.055" cy="125.384" fill="#FFF" fill-rule="nonzero" stroke="#FFF" stroke-width="1.618" rx="8.252" ry="13.61" transform="rotate(-72.65 212.055 125.384)"/><path stroke="#FFF" stroke-width="1.618" d="M203.074 128.891l-14.805 7.21"/><ellipse cx="109.014" cy="66.899" fill="#FFF" fill-rule="nonzero" stroke="#FFF" stroke-width="1.618" rx="8.252" ry="13.61" transform="rotate(-72.65 109.014 66.899)"/><ellipse cx="44.367" cy="98.132" fill="#FFF" fill-rule="nonzero" stroke="#FFF" stroke-width="1.618" rx="8.252" ry="13.61" transform="rotate(-72.65 44.367 98.132)"/><path stroke="#FFF" stroke-width="1.618" d="M67.152 86.522l-14.078 6.805M100 70.4l-14.725 7.21"/><ellipse cx="126.004" cy="112.979" fill="#FFF" fill-rule="nonzero" stroke="#FFF" stroke-width="2.427" rx="12.54" ry="20.658" transform="rotate(-72.65 126.004 112.979)"/><ellipse cx="147.355" cy="156.516" fill="#FFF" fill-rule="nonzero" stroke="#FFF" stroke-width="1.618" rx="8.252" ry="13.61" transform="rotate(-72.65 147.355 156.516)"/><path stroke="#FFF" stroke-width="1.618" d="M170.146 144.932l-13.997 6.886"/><g fill-rule="nonzero"><path fill="#F32C50" d="M132.039 117.954c-3.075 0-5.583-2.511-5.583-5.59V75.262c0-3.079 2.508-5.59 5.583-5.59 3.074 0 5.582 2.511 5.582 5.59v37.104c0 3.078-2.508 5.59-5.582 5.59zm-12.298-5.751c-3.074 0-5.582-2.512-5.582-5.59V69.509c0-3.079 2.508-5.59 5.582-5.59 3.075 0 5.583 2.511 5.583 5.59v37.104c0 3.078-2.508 5.59-5.583 5.59z"/><path fill="url(#i)" d="M4.612 70.643c-1.214 0-2.428-.486-3.237-1.458a4.411 4.411 0 0 1 .243-6.32c13.835-12.961 11.246-27.22 11.165-27.868-.485-2.43 1.133-4.78 3.56-5.265 2.427-.486 4.774 1.053 5.259 3.483.162.81 3.803 19.686-13.754 36.213-1.052.81-2.185 1.215-3.236 1.215z" transform="translate(101.942 3.24)"/><path fill="#F32C50" d="M126.294 70.724c-7.686 0-13.996-3.078-13.996-6.805v3.16c0 7.696 6.31 14.015 13.996 14.015 7.687 0 13.997-6.32 13.997-14.016V63.92c0 3.808-6.23 6.805-13.997 6.805z"/><path fill="url(#j)" d="M24.353 26.167c-7.686 0-13.997 6.32-13.997 14.015v20.496c0 3.808 6.23 6.806 13.997 6.806 7.767 0 13.997-3.079 13.997-6.806V40.182c0-7.696-6.311-14.015-13.997-14.015z" transform="translate(101.942 3.24)"/><path fill="url(#k)" d="M35.68 79.635a4.382 4.382 0 0 1-2.023-.486c-2.185-1.134-3.074-3.888-1.942-6.076 9.709-18.714-2.103-34.106-2.589-34.754-1.537-1.944-1.213-4.78.728-6.319a4.493 4.493 0 0 1 6.311.73c.647.81 15.939 20.495 3.479 44.475-.728 1.54-2.346 2.43-3.964 2.43z" transform="translate(101.942 3.24)"/><path fill="url(#l)" d="M22.411.648c7.686 0 13.997 6.32 13.997 14.015 0 7.696-6.31 14.015-13.997 14.015-7.686 0-13.997-6.319-13.997-14.015 0-7.696 6.31-14.015 13.997-14.015z" transform="translate(101.942 3.24)"/></g><g fill-rule="nonzero"><path fill="url(#m)" d="M.162 14.906l7.12-4.131 13.43 7.615-7.12 4.132z" transform="translate(165.858)"/><path fill="url(#n)" d="M13.592 20.01l7.12-4.132v8.264l-7.12 4.131z" transform="translate(165.858)"/><path fill="#FEC736" d="M166.02 23.17v-8.264l13.43 7.616v8.263z"/><path fill="url(#o)" d="M13.592 4.699l7.12-4.132 7.12 4.132-7.12 4.131z" transform="translate(165.858)"/><path fill="#FE734B" d="M186.57 8.83l7.12-4.131v43.017l-7.12 4.132z"/><path fill="#FEC736" d="M179.45 47.716V4.7l7.12 4.131v43.018z"/><path fill="url(#p)" d="M20.712 26.086l7.12-4.132 13.511 7.616-7.2 4.131z" transform="translate(165.858)"/><path fill="#FE734B" d="M200 33.701l7.2-4.131v8.263l-7.2 4.132z"/><path fill="#FEC736" d="M186.57 34.35v-8.264L200 33.701v8.264z"/></g></g></svg>