<svg xmlns="http://www.w3.org/2000/svg" width="247" height="194"><defs><linearGradient id="a" x1="52.008%" x2="50%" y1="21.644%" y2="73.89%"><stop offset="0%" stop-color="#FE5053"/><stop offset="100%" stop-color="#FEC735"/></linearGradient><linearGradient id="b" x1="185%" x2="474%" y1="2248%" y2="2248%"><stop offset="0%" stop-color="#283358"/><stop offset="100%" stop-color="#476E9B"/></linearGradient><linearGradient id="c" x1="100%" x2="0%" y1="0%" y2="100%"><stop offset="0%" stop-color="#FE5053"/><stop offset="100%" stop-color="#FEC735"/></linearGradient><linearGradient id="d" x1="185%" x2="474%" y1="2248%" y2="2248%"><stop offset="0%" stop-color="#FFF"/><stop offset="100%" stop-color="#476E9B"/></linearGradient><linearGradient id="e" x1="93.524%" x2="-15.318%" y1="106.841%" y2="-17.177%"><stop offset="0%" stop-color="#FE5053"/><stop offset="100%" stop-color="#FEC735"/></linearGradient></defs><g fill="none"><path fill="#FFCFA5" d="M242.383 126.382a6.346 6.346 0 0 1 4.37 6.028 6.346 6.346 0 0 1-4.37 6.027l-77.52 44.985a22.904 22.904 0 0 1-20.713 0L4.36 102.652c-5.782-3.3-5.845-8.692 0-11.992l77.583-44.985a22.84 22.84 0 0 1 20.778 0l139.662 80.707z"/><path fill="#FFCFA5" d="M242.383 134.195a6.346 6.346 0 0 1 4.37 6.028 6.346 6.346 0 0 1-4.37 6.027l-77.52 44.986a22.904 22.904 0 0 1-20.713 0L4.36 110.466c-5.782-3.3-5.845-8.693 0-11.992l77.583-44.986a22.84 22.84 0 0 1 20.778 0l139.662 80.707z" opacity=".423"/><path fill="url(#a)" d="M63.097 18.463H58.46l-4.32 2.535c.295-.163.616-.273.948-.323h1.16a3.5 3.5 0 0 1 1.211 0c.454.162.894.36 1.317.593L176.32 91.387l4.32-2.535L63.097 18.463z" transform="translate(0 -18)"/><path fill="#EE9547" d="M176.174 72.703v85.365c.033.32.033.64 0 .96a4.61 4.61 0 0 1-.274.8 1.86 1.86 0 0 1-.274.427c-.18.267-.425.486-.712.64l4.493-2.507c.277-.19.518-.424.712-.694V70.782l-3.945 1.921z"/><path fill="#FFBA7D" d="M173.711 67.729a9.545 9.545 0 0 1 4.326 7.448l-.254 81.629c0 2.754-1.934 3.826-4.326 2.448L59.358 93.391a13.884 13.884 0 0 1-6.26-10.867l.204-77.088c0-3.98 2.85-5.612 6.31-3.57l114.1 65.863z"/><path fill="#FE764C" d="M172.19 69.006a9.414 9.414 0 0 1 4.285 7.517v81.82c0 2.761-1.99 3.835-4.336 2.506L57.812 94.728a13.916 13.916 0 0 1-6.275-10.892V6.516c0-4.04 2.857-5.625 6.326-3.63l114.327 66.12z"/><path fill="url(#b)" d="M73.862 66.99a4.45 4.45 0 0 1 2.142 3.607v11.99c0 1.373-.992 1.88-2.194 1.22l-10.76-6.046a4.65 4.65 0 0 1-2.143-3.607V62.112c0-1.321.94-1.83 2.142-1.169l10.813 6.047z" transform="translate(0 -18)"/><path fill="url(#c)" d="M172.19 87.411a9.478 9.478 0 0 1 4.285 7.509l-124.938 7.405V24.514c0-4.012 2.857-5.657 6.326-3.6L172.19 87.41z" transform="translate(0 -18)"/><path fill="#EDEDED" d="M153.94 77.145a20.092 20.092 0 0 1 9 15.358c0 5.734-4.068 8.089-9.051 5.12a18.02 18.02 0 0 1-6.306-6.656 6.371 6.371 0 0 1-6.356-.665 20.095 20.095 0 0 1-9-15.717c0-5.734 4.067-8.088 9.102-5.12a18.428 18.428 0 0 1 6.305 6.656 6.272 6.272 0 0 1 6.306 1.024z"/><path fill="#F8E71C" d="M85.374 94.887H84.34L62.088 80.158h-.724l-2.018 1.206h.724l22.251 13 .414.314h.052l.31.471c.094.326.094.671 0 .996.03.138.03.281 0 .42v.262l2.019-1.206.258-.734z"/><path fill="#EAEAEA" d="M82.301 93.77c.615.38.99 1.053.991 1.777 0 .68-.417.94-.991.627l-22.433-13.01a2.195 2.195 0 0 1-1.043-1.777c0-.627.47-.888 1.043-.575l22.433 12.959z"/><path fill="#F8E71C" d="M113.33 110.563h-.569L90.51 97.89h-.983l-2.07-.511h.31a.68.68 0 0 1 .414 0l22.252 12.672.413.306.311.46c.197.287.304.625.31.971a.94.94 0 0 1 0 .409.505.505 0 0 1 0 .255l2.019-1.175-.156-.715z"/><path fill="#EAEAEA" d="M110.362 110.485a2.2 2.2 0 0 1 1.041 1.78c0 .628-.468.89-1.04.576L87.976 99.859a2.306 2.306 0 0 1-1.04-1.78c0-.628.468-.942 1.04-.575l22.385 12.981z"/><path fill="#F8E71C" d="M141.597 126.982v-.252h-.57l-22.711-13.756h-.726l-2.022 1.113h.726l22.4 12.39.362.303c.138.127.244.282.311.455.197.284.305.618.311.961.03.133.03.271 0 .405h-.259l2.074-1.163.104-.456z"/><path fill="#EAEAEA" d="M139.044 126.614c.577.416.94 1.067.991 1.777 0 .627-.47.94-.991.575l-22.485-12.963a2.144 2.144 0 0 1-.991-1.777c0-.627.47-.941 1.043-.575l22.433 12.963z"/><path fill="url(#d)" d="M75.424 66.99a4.45 4.45 0 0 1 2.142 3.607v11.99c0 1.373-.993 1.88-2.194 1.22L64.61 77.761a4.65 4.65 0 0 1-2.142-3.607V62.112c0-1.321.94-1.83 2.142-1.169l10.813 6.047z" transform="translate(0 -18)"/><path fill="#F8E71C" d="M169.708 143.116h-1.036l-22.25-12.432h-.725l-2.018 1.148a.374.374 0 0 1 .31 0h.414l22.252 12.432c.16.066.303.169.414.3l.31.399c.173.29.279.614.31.948a.9.9 0 0 1 0 .4l2.019-1.149v-2.046z"/><path fill="#EAEAEA" d="M166.584 143.307a2.196 2.196 0 0 1 1.042 1.724c0 .68-.469.94-1.042.627L144.2 132.7a2.405 2.405 0 0 1-1.042-1.83c0-.626.469-.887 1.042-.574l22.384 13.01z"/><path fill="url(#e)" d="M52.697 62c0-1.264-.282-2.333-.846-3.216l-6.284-9.82c-.564-.876-1.25-1.318-2.055-1.318-.846 0-1.569.502-2.176 1.511.062.09.251.393.576.895.322.47.533.803.634.99.12.188.271.49.453.9.201.406.332.817.393 1.228.08.374.12.804.12 1.275 0 1.257-.282 2.327-.845 3.209-.565.882-1.25 1.323-2.054 1.323-.302 0-.584-.048-.847-.145a2.857 2.857 0 0 1-.754-.61c-.263-.314-.453-.55-.576-.707-.12-.194-.34-.538-.665-1.04-.302-.507-.484-.803-.542-.9-.665.979-.998 2.127-.998 3.45 0 1.257.283 2.327.847 3.21l6.223 9.772c.544.852 1.228 1.275 2.054 1.275.806 0 1.49-.41 2.055-1.227l4.441-6.895c.564-.883.846-1.934.846-3.161M31.459 28.712c0-1.26-.282-2.33-.846-3.21l-6.226-9.774c-.561-.882-1.246-1.322-2.054-1.322-.785 0-1.47.425-2.053 1.275l-4.44 6.893c-.564.881-.847 1.935-.847 3.163 0 1.26.283 2.33.847 3.21l6.284 9.821c.542.852 1.226 1.275 2.054 1.275.847 0 1.57-.49 2.173-1.464a43.328 43.328 0 0 0-.572-.85c-.321-.503-.546-.85-.665-1.038a31.423 31.423 0 0 1-.453-.897 6.06 6.06 0 0 1-.394-1.18 9.434 9.434 0 0 1-.09-1.323c0-1.259.283-2.33.848-3.21.56-.882 1.245-1.322 2.053-1.322.302 0 .572.063.816.187.26.094.522.3.785.614.263.284.452.52.572.708.124.157.333.488.635.992l.576.897c.665-.976.997-2.125.997-3.447m24.5 23.654c1.692 2.641 2.538 5.856 2.538 9.633 0 3.778-.856 6.968-2.568 9.585l-4.44 6.89c-1.672 2.616-3.717 3.922-6.134 3.922-2.437 0-4.49-1.342-6.161-4.013l-6.226-9.778c-1.67-2.61-2.506-5.802-2.506-9.579 0-3.874.885-7.161 2.656-9.869l-2.656-4.158c-1.733 2.774-3.829 4.158-6.284 4.158-2.417 0-4.47-1.323-6.164-3.97l-6.284-9.818c-1.69-2.644-2.537-5.855-2.537-9.632 0-3.777.854-6.971 2.567-9.584l4.44-6.893c1.674-2.612 3.716-3.919 6.133-3.919 2.436 0 4.494 1.338 6.164 4.013l6.222 9.774c1.675 2.613 2.51 5.807 2.51 9.584 0 3.872-.885 7.16-2.66 9.867l2.66 4.154c1.733-2.768 3.825-4.154 6.283-4.154 2.417 0 4.472 1.32 6.164 3.967l6.284 9.82" transform="rotate(-28 28.804 -29.957)"/><path fill="#F32C50" d="M89.963 41.06c-.593-1.115-1.344-1.927-2.257-2.442l-10.158-5.72c-.91-.509-1.722-.577-2.433-.199-.747.397-1.15 1.18-1.212 2.356.097.05.406.229.928.52.505.264.848.458 1.025.577.195.109.47.304.823.582.368.263.676.565.923.899.247.293.484.653.705 1.069.59 1.11.843 2.187.76 3.23-.084 1.044-.482 1.756-1.192 2.133a2.424 2.424 0 0 1-.816.27c-.272 0-.59-.056-.953-.185a29.1 29.1 0 0 1-.84-.354 73.532 73.532 0 0 0-1.076-.606c-.504-.306-.804-.482-.9-.54-.128 1.176.117 2.346.739 3.515.59 1.11 1.341 1.921 2.254 2.436l10.082 5.706c.88.498 1.683.55 2.413.162.71-.378 1.123-1.063 1.237-2.048l.685-8.173c.083-1.044-.161-2.105-.737-3.188m-34.38-19.42c-.59-1.112-1.342-1.925-2.254-2.438l-10.086-5.706c-.909-.515-1.72-.583-2.434-.204-.693.369-1.098 1.066-1.214 2.09l-.684 8.17c-.085 1.044.161 2.107.737 3.191.592 1.112 1.343 1.924 2.256 2.438l10.158 5.72c.879.499 1.681.55 2.412.162.748-.397 1.157-1.169 1.232-2.313-.096-.056-.4-.215-.905-.481-.52-.294-.88-.495-1.075-.605a32.926 32.926 0 0 1-.82-.58 6.06 6.06 0 0 1-.903-.857 9.434 9.434 0 0 1-.699-1.125c-.59-1.112-.844-2.19-.76-3.233.082-1.041.48-1.752 1.193-2.131.267-.142.535-.213.809-.217.273-.04.601.019.98.172.367.128.644.247.839.357.183.081.523.275 1.025.578.523.292.831.467.93.521.13-1.173-.116-2.343-.737-3.511M88.32 31.02c2.734 1.538 4.99 3.98 6.764 7.314 1.773 3.335 2.515 6.555 2.232 9.669l-.687 8.168c-.248 3.095-1.44 5.207-3.574 6.342-2.152 1.144-4.595.924-7.324-.65l-10.088-5.71c-2.7-1.522-4.936-3.947-6.71-7.282-1.818-3.42-2.58-6.739-2.287-9.96l-4.298-2.425c-.227 3.263-1.428 5.469-3.596 6.622-2.134 1.134-4.568.93-7.307-.612l-10.157-5.718c-2.733-1.541-4.989-3.979-6.762-7.314-1.773-3.335-2.518-6.557-2.232-9.668l.684-8.17c.251-3.093 1.44-5.205 3.575-6.34 2.15-1.144 4.596-.928 7.327.65l10.082 5.708c2.705 1.52 4.942 3.95 6.715 7.284 1.818 3.419 2.58 6.738 2.284 9.962l4.299 2.418c.23-3.257 1.427-5.463 3.598-6.617 2.134-1.135 4.567-.934 7.304.608L88.32 31.02"/></g></svg>