<svg xmlns="http://www.w3.org/2000/svg" width="200" height="151"><defs><linearGradient id="a" x1=".001%" x2="99.97%" y1="50.029%" y2="50.029%"><stop offset="0%" stop-color="#FEC735"/><stop offset="100%" stop-color="#FE5053"/></linearGradient><linearGradient id="b" x1="-.047%" x2="100.011%" y1="50.037%" y2="50.037%"><stop offset="26.23%" stop-color="#FE8147"/><stop offset="100%" stop-color="#FEC735"/></linearGradient><linearGradient id="c" x1=".006%" x2="99.959%" y1="50.003%" y2="50.003%"><stop offset="0%" stop-color="#FE5053"/><stop offset="100%" stop-color="#FEC735"/></linearGradient><linearGradient id="d" x1="-.224%" x2="99.754%" y1="50.001%" y2="50.001%"><stop offset="0%" stop-color="#FE5053"/><stop offset="100%" stop-color="#FE9941"/></linearGradient><linearGradient id="e" x1=".014%" x2="99.609%" y1="49.842%" y2="49.842%"><stop offset="0%" stop-color="#FE9B40"/><stop offset="85.25%" stop-color="#FEC735"/></linearGradient></defs><g fill="none" fill-rule="evenodd"><path fill="#FFCFA5" fill-rule="nonzero" d="M195.922 96.795c2.136.71 3.56 2.646 3.56 4.84s-1.424 4.194-3.56 4.84l-62.653 36.2c-5.243 2.646-11.457 2.646-16.764 0L3.625 77.695c-4.66-2.646-4.725-6.97 0-9.68l62.653-36.2a18.298 18.298 0 0 1 16.764 0l112.88 64.98z"/><path fill="#FFCFA5" fill-rule="nonzero" d="M195.922 103.119c2.136.71 3.56 2.646 3.56 4.84s-1.424 4.194-3.56 4.84l-62.653 36.2c-5.243 2.646-11.457 2.646-16.764 0L3.625 84.019c-4.66-2.646-4.725-6.97 0-9.68l62.653-36.2a18.298 18.298 0 0 1 16.764 0l112.88 64.98z" opacity=".423"/><path fill="#EEBF00" fill-rule="nonzero" d="M62.136 13.164l-12.557 7.292v50.075l67.767 38.976 12.557-7.292V52.14z"/><path fill="#FFDE56" fill-rule="nonzero" d="M49.58 20.456l12.556-7.292 67.767 38.976-12.557 7.292z"/><path fill="url(#a)" fill-rule="nonzero" d="M96.117.194l-33.981 12.97-12.557 7.227v.065l31.262 53.43 36.505-14.454 12.557-7.292z"/><path d="M57.411 15.874l4.725-2.71L96.116.194l-4.79 2.71zm33.916-12.97l4.79-2.71 33.786 51.946-4.79 2.71z" fill="#FEC736" fill-rule="nonzero"/><path fill="url(#b)" fill-rule="nonzero" d="M91.327 2.904l33.786 51.946-67.702-38.976z"/><g fill-rule="nonzero"><path fill="#F32C50" d="M122.589 38.847L59.806 2.452c-2.007-1.226-3.625-.193-3.625 2.065l-.13 38.524c.066 1.55.648 3.098 1.554 4.324.583.774 1.295 1.42 2.071 2L122.46 85.76c.841.452 1.553.581 2.2.387l.13.065v-.13c.841-.322 1.359-1.16 1.359-2.451l.065-38.46c-.13-2.581-1.49-4.904-3.625-6.324z"/><path fill="#FCEADA" d="M116.764 39.686c.194 4.323 2.524 8.324 6.213 10.712l-.194 24.134c-3.43-1.871-6.472-.516-6.602 3.356L65.825 48.785c-.259-4.324-2.524-8.325-6.149-10.712V13.938c3.366 1.872 6.538.517 6.538-3.42l50.55 29.168zM91.262 60.27c7.508 4.388 13.657.774 13.722-8.066a30.431 30.431 0 0 0-13.592-23.94c-7.509-4.389-13.657-.71-13.722 8.065.388 9.744 5.502 18.585 13.592 23.94zm22.007 1.29c2.136 1.227 4.013.194 4.013-2.258-.13-2.775-1.619-5.291-3.949-6.84-2.2-1.226-3.948-.258-3.948 2.258.065 2.84 1.554 5.356 3.884 6.84zM69.644 36.009c2.2 1.226 3.948.258 3.948-2.259a8.514 8.514 0 0 0-3.948-6.775c-2.2-1.227-3.948-.259-3.948 2.258.194 2.71 1.618 5.292 3.948 6.776z"/><path fill="#FFF" d="M89.968 55.69v-2.71c-1.554-1.162-2.978-2.453-4.013-4.002.259-1.097.453-2.194.712-3.29 1.1 1.548 2.46 3.032 4.013 4 .517.323 2.2 1.097 2.136-.323-.065-1.42-1.424-2.774-2.395-3.807-2.2-2.194-4.207-4.969-4.207-8.195 0-2.259 1.488-4.13 3.948-2.969v-2.71c.777.452 1.488.968 2.265 1.42v2.517c1.295.838 2.46 2 3.43 3.161-.258 1.033-.452 2.13-.711 3.162-1.036-1.226-2.201-2.387-3.43-3.29-.583-.388-1.878-.775-1.813.322.13 1.549 1.747 3.033 2.783 4.065 2.136 2.259 3.819 4.97 3.884 8.067.064 2.452-1.619 4-4.143 2.968v2.904c-.97-.387-1.683-.839-2.46-1.29z"/></g><g fill-rule="nonzero"><path fill="#F32C50" d="M117.411 47.752L54.628 11.357c-2.007-1.226-3.625-.193-3.625 2.065l-.13 38.525c.066 1.548.648 3.097 1.554 4.323.583.774 1.295 1.42 2.071 2l62.784 36.395c.841.452 1.553.581 2.2.388l.13.064v-.129c.841-.323 1.359-1.162 1.359-2.452l.13-38.524a8.31 8.31 0 0 0-3.69-6.26z"/><path fill="#FCEADA" d="M111.586 48.591c.194 4.324 2.524 8.324 6.213 10.712l-.194 24.134c-3.43-1.871-6.472-.516-6.602 3.356L60.647 57.69c-.259-4.324-2.524-8.325-6.149-10.712V22.844c3.366 1.871 6.538.516 6.538-3.42l50.55 29.167zM86.084 69.176c7.508 4.388 13.657.774 13.722-8.066a30.431 30.431 0 0 0-13.592-23.94c-7.508-4.389-13.657-.71-13.722 8.065.388 9.744 5.502 18.65 13.592 23.941zm22.007 1.355c2.136 1.226 4.013.194 4.013-2.258-.13-2.775-1.619-5.292-3.949-6.84-2.2-1.227-3.948-.259-3.948 2.258.065 2.775 1.554 5.291 3.884 6.84zM64.466 44.977c2.2 1.226 3.948.258 3.948-2.258a8.514 8.514 0 0 0-3.948-6.776c-2.2-1.226-3.948-.258-3.948 2.259a8.89 8.89 0 0 0 3.948 6.775z"/><path fill="#FFF" d="M84.79 64.594v-2.71c-1.554-1.161-2.978-2.452-4.013-4 .259-1.098.453-2.195.712-3.292 1.1 1.549 2.46 3.033 4.013 4.001.517.323 2.2 1.097 2.136-.322-.065-1.42-1.424-2.775-2.395-3.808-2.2-2.194-4.207-4.969-4.207-8.195 0-2.259 1.488-4.13 3.948-2.968v-2.71c.777.451 1.488.967 2.265 1.419v2.517c1.295.839 2.46 2 3.43 3.162-.258 1.032-.452 2.13-.711 3.162-1.036-1.226-2.201-2.388-3.43-3.291-.583-.388-1.878-.775-1.813.322.13 1.549 1.747 3.033 2.783 4.066 2.136 2.258 3.819 4.968 3.884 8.066.064 2.452-1.619 4-4.143 2.968v2.904c-.97-.323-1.683-.839-2.46-1.29z"/></g><path fill="#FEC736" fill-rule="nonzero" d="M49.58 20.456v50.075l67.766 38.976V59.432L80.841 73.887z"/><path fill="url(#c)" fill-rule="nonzero" d="M73.463 61.368l15.987 9.099 27.896 39.04L49.58 70.531z"/><path fill="url(#d)" fill-rule="nonzero" d="M117.346 59.432l12.557-7.292v50.075l-12.557 7.292z"/><path stroke="#F32C50" stroke-linecap="round" stroke-linejoin="round" stroke-width="5.178" d="M125.89 69.563l40.259 22.328M140 98.795l5.049 2.775M125.89 80.404l10.55 5.808m-10.55 4.968l4.013 2.26"/><g fill-rule="nonzero"><path fill="#F32C50" d="M167.832 17.552c-1.683-2.775-3.884-4.904-6.538-6.453l-9.32-5.356c-2.783-1.613-5.113-2-7.055-1.161-.065 0-.065.064-.13.064-.064 0-.064.065-.129.065s-.065.064-.13.064c-.064 0-.064.065-.129.065-.064 0-.064.064-.13.064-.064 0-.064.065-.129.065-.064 0-.064.064-.13.064-.064 0-.064.065-.129.065-.064 0-.064.064-.129.064s-.065.065-.13.065c-.064 0-.064.064-.129.064s-.065.065-.13.065c-.064 0-.064.065-.129.065-.064 0-.064.064-.13.064-.064 0-.064.065-.129.065-.064 0-.064.064-.13.064-.064 0-.064.065-.129.065-.064 0-.064.064-.129.064s-.065.065-.13.065c-.064 0-.064.064-.129.064-.259.13-.582.258-.841.387-2.072 1.291-3.042 3.679-3.107 7.228v9.55c0 3.678 1.1 7.292 3.236 10.841 2.136 3.485 4.984 6.26 8.35 8.196l8.155 4.71c.324.194.583.258.777.13.064 0 .064 0 .13-.065.064 0 .064 0 .129-.065.064 0 .064 0 .129-.064.065 0 .065 0 .13-.065.064 0 .064 0 .129-.064.065 0 .065 0 .13-.065.064 0 .064 0 .129-.064.065 0 .065 0 .13-.065.064 0 .064 0 .129-.065.064 0 .064 0 .13-.064.064 0 .064 0 .129-.065.064 0 .064 0 .13-.064.064 0 .064 0 .129-.065.064 0 .064 0 .129-.064.065 0 .065 0 .13-.065.064 0 .064 0 .129-.064.065 0 .065 0 .13-.065.064 0 .064 0 .129-.064.064 0 .064 0 .13-.065.064 0 .064 0 .129-.064.259-.065.323-.258.323-.71v-1.549c0-.71-.323-1.29-.97-1.678l-8.22-4.71c-2.525-1.42-4.531-3.42-6.02-5.937-1.489-2.517-2.265-5.227-2.265-8.13v-8.39c0-2.323.453-3.936 1.294-4.969 1.1.065 2.395.517 3.948 1.356l8.609 4.968c1.424.84 2.589 1.872 3.624 3.098l-7.508-4.324c-1.812-1.032-3.3-1.29-4.53-.774-.065 0-.065.064-.13.064s-.065.065-.13.065c-.064 0-.064.065-.129.065s-.065.064-.13.064c-.064 0-.064.065-.129.065s-.065.064-.13.064c-.064 0-.064.065-.129.065-.064 0-.064.064-.13.064-.064 0-.064.065-.129.065-.064 0-.064.064-.129.064s-.065.065-.13.065c-.064 0-.064.064-.129.064s-.065.065-.13.065c-.064 0-.064.064-.129.064s-.065.065-.13.065c-.064 0-.064.064-.129.064-.064 0-.064.065-.13.065-.064 0-.064.064-.129.064-.064 0-.064.065-.13.065-.064 0-.064.065-.129.065-.194.064-.388.129-.517.258-1.23.774-1.877 2.516-1.877 5.227v3.097c0 2.646.582 4.969 1.747 7.034 1.165 2.065 2.654 3.613 4.531 4.646 1.553.903 2.783 1.161 3.625.71.064 0 .064-.065.129-.065s.065-.064.13-.064c.064 0 .064-.065.129-.065s.065-.064.13-.064c.064 0 .064-.065.129-.065s.065-.064.13-.064c.064 0 .064-.065.129-.065.064 0 .064-.064.13-.064 0 0 .064 0 .064-.065.065.774.324 1.549.841 2.323.583.774 1.295 1.42 2.136 1.871l2.654 1.55c1.618.903 2.977 1.16 4.078.709.064 0 .064-.065.13-.065.064 0 .064-.064.129-.064.064 0 .064-.065.129-.065s.065-.064.13-.064c.064 0 .064-.065.129-.065s.065-.064.13-.064c.064 0 .064-.065.129-.065.064 0 .064-.064.13-.064.064 0 .064-.065.129-.065.064 0 .064-.064.13-.064.064 0 .064-.065.129-.065.064 0 .064-.064.129-.064s.065-.065.13-.065c.064 0 .064-.064.129-.064s.065-.065.13-.065c.064 0 .064-.065.129-.065s.065-.064.13-.064c.064 0 .064-.065.129-.065.064 0 .064-.064.13-.064.064 0 .064-.065.129-.065.13-.064.323-.129.453-.193 1.165-.646 1.747-1.936 1.747-3.937V25.812c.065-2.71-.776-5.485-2.46-8.26zm-12.427 12.454l-.13-.064c-.97-.58-1.683-1.162-2.071-1.871-.388-.71-.583-1.614-.583-2.646v-4.066l2.654 1.55c.388.193.518.515.518.967v5.227c0 .452-.065.839-.13 1.162 0-.13-.129-.194-.258-.259zm8.932-4.581v9.937c0 .259 0 .517-.065.775-.065 0-.13-.065-.194-.065-.583-.322-.842-.71-.842-1.097l.065-13.938c.647 1.355 1.036 2.84 1.036 4.388z"/><path fill="url(#e)" d="M14.304 27.232c-.97-.581-1.683-1.162-2.071-1.872-.388-.71-.583-1.613-.583-2.645v-3.679c0-1.097.195-1.807.583-2.065.388-.258 1.1-.064 2.071.452l2.719 1.549c.388.193.517.516.517.968v5.227c0 2.645-1.035 3.355-3.171 2.13l-.065-.065m6.02-18.779l-9.32-5.356c-3.108-1.806-5.697-2.065-7.768-.774C1.165 3.613.194 6.001.13 9.55v9.55c0 3.68 1.1 7.293 3.237 10.842 2.136 3.484 4.984 6.26 8.35 8.195l8.155 4.71c.647.388.97.194.97-.515v-1.55c0-.709-.323-1.29-.97-1.677l-8.22-4.71c-2.525-1.42-4.531-3.42-6.02-5.937-1.489-2.517-2.265-5.227-2.265-8.131v-8.389c0-2.968.712-4.84 2.07-5.679 1.36-.838 3.302-.516 5.826.904l8.609 4.969a13.929 13.929 0 0 1 4.4 4.065 9.566 9.566 0 0 1 1.748 5.55v9.937c0 2.259-.97 2.84-2.912 1.807-.583-.323-.842-.71-.842-1.097l.065-14.132c0-.71-.324-1.29-.97-1.678l-7.897-4.517c-2.007-1.161-3.69-1.355-4.92-.58-1.23.774-1.876 2.516-1.876 5.226v3.098c0 2.645.582 4.968 1.747 7.033 1.165 2.065 2.654 3.614 4.531 4.647 2.265 1.29 3.754 1.226 4.53-.259l.195.13v.193c0 .839.324 1.678.906 2.517.583.774 1.295 1.42 2.136 1.871l2.654 1.549c1.747 1.032 3.236 1.226 4.401.58 1.165-.645 1.748-1.935 1.748-3.936V23.36c0-2.775-.842-5.485-2.525-8.26-1.812-2.968-4.013-5.162-6.666-6.647" transform="translate(137.864 3.872)"/></g></g></svg>