<svg xmlns="http://www.w3.org/2000/svg" width="246" height="205"><defs><linearGradient id="a" x1="166.918%" x2="-26.293%" y1="132.497%" y2="-10.132%"><stop offset="0%" stop-color="#FE5053"/><stop offset="100%" stop-color="#FEC735"/></linearGradient><linearGradient id="b" x1="50%" x2="50%" y1="0%" y2="100%"><stop offset="0%" stop-color="#F68443"/><stop offset="100%" stop-color="#EA4D20"/></linearGradient><linearGradient id="c" x1="100%" x2="0%" y1="0%" y2="100%"><stop offset="0%" stop-color="#FE5053"/><stop offset="100%" stop-color="#FEC735"/></linearGradient></defs><g fill="none"><path fill="#FFCFA5" d="M241.643 137.746a6.338 6.338 0 0 1 0 12.042l-77.282 44.935a22.795 22.795 0 0 1-20.651 0L4.347 114.043c-5.764-3.296-5.828-8.684 0-11.98L81.693 57.13a22.731 22.731 0 0 1 20.715 0l139.235 80.617z"/><path fill="#FFCFA5" d="M241.643 145.55a6.338 6.338 0 0 1 0 12.042l-77.282 44.935a22.795 22.795 0 0 1-20.651 0L4.347 121.847c-5.764-3.296-5.828-8.683 0-11.979l77.346-44.935a22.731 22.731 0 0 1 20.715 0l139.235 80.617z" opacity=".423"/><path fill="#79B885" d="M164.519 106.099c0-.908.704-1.244 1.557-.807.935.534 1.518 1.453 1.557 2.454 0 .908-.667 1.245-1.557.808-.921-.546-1.5-1.459-1.557-2.455z"/><path fill="#F8E71C" d="M125.623 17.69l-.028 1.637 14.013 8.77V26.46z"/><path fill="#FFF" d="M108.137 11.334c-1.68-.953-3.001-.178-3.001 1.727l-.3 96.238a6.719 6.719 0 0 0 3.001 5.181l49.258 28.199c.6.476 1.433.538 2.097.156a1.841 1.841 0 0 0 .905-1.883l.27-96.238a6.66 6.66 0 0 0-3.002-5.181l-49.228-28.199z"/><path fill="url(#a)" d="M155.421 30.425c4.136 2.773 6.74 7.364 7.022 12.386l-.326 110.81c0 4.54-3.2 6.374-7.08 4.089l-45.775-26.786c-4.146-2.75-6.753-7.338-7.021-12.356l.296-110.9c0-4.51 3.2-6.374 7.08-4.089l45.804 26.846zm-49.062 78.163a6.332 6.332 0 0 0 2.814 4.93l46.07 27.056c1.57.932 2.963.15 2.963-1.623l.148-92.202a6.296 6.296 0 0 0-2.962-4.93l-46.1-27.057c-1.57-.901-2.815-.18-2.963 1.654l.03 92.081v.09zm21.48 27.838a3.437 3.437 0 0 0 1.54 2.675l5.57 3.277c.86.51 1.57 0 1.57-.872v-6.584a3.316 3.316 0 0 0-1.54-2.705l-5.6-3.277c-.83-.481-1.51 0-1.54.902v6.583zm11.85-109.488l-14.458-8.628v1.593l14.577 8.538v-1.593l-.119.09z"/><path fill="#EE9547" d="M111.214.504a3.888 3.888 0 0 1 2.973-.357 7.72 7.72 0 0 1 2.14.834l45.846 26.606c1.308.78 2.466 1.79 3.42 2.98a15.392 15.392 0 0 1 3.597 9.265l-.297 109.85a4.92 4.92 0 0 1-2.082 4.528l-6.778 3.963a5.01 5.01 0 0 0 2.051-4.559l.327-109.82a15.63 15.63 0 0 0-3.657-9.265 13.328 13.328 0 0 0-3.39-2.98L109.43 4.944a7.87 7.87 0 0 0-2.14-.864 4.214 4.214 0 0 0-2.974.387l6.898-3.963z"/><path fill="#EE9547" d="M109.506 97.644l43.595 25.668V71.975l-43.595-25.668z" opacity=".2"/><path fill="url(#b)" d="M145.985 84.086l-4.718-2.87c-.293-.246-.615-.246-.733 0l-2.373 5.091-21.04-12.773a.515.515 0 0 0-.38-.171.515.515 0 0 0-.381.171 1.196 1.196 0 0 0 0 .987l4.307 14.624c.124.47.405.875.791 1.142l13.01 7.898c.382.247.704.154.85 0l2.93-7.404.44-1.05 2.93-6.17 4.425 2.684a.48.48 0 0 0 .58.065.535.535 0 0 0 .24-.558 1.937 1.937 0 0 0-.878-1.666z"/><path fill="#EA4D20" d="M121.703 91.284c-1-.583-1.817 0-1.817 1.062a3.988 3.988 0 0 0 1.817 3.159c1 .584 1.816 0 1.816-1.062a4.068 4.068 0 0 0-1.816-3.159z"/><path fill="#D73D32" d="M133.64 97.527c-1.027-.58-1.817 0-1.817 1.056a3.988 3.988 0 0 0 1.816 3.167c1 .58 1.817 0 1.817-1.056a4.067 4.067 0 0 0-1.817-3.167z"/><path fill="#CDCED0" d="M112.098 16.039v2.219L100.066 37.86v-2.28z"/><path fill="#FAFBFD" d="M112.098 16.039L100.066 35.58l-6-3.434 12.92-19.026z"/><path fill="#C7391C" d="M117.715 19.062v2.158l-12.062 19.068.03-2.217z"/><path fill="url(#c)" d="M6.038 22.462l-.03 2.217-6.002-3.37v-2.217z" transform="translate(99.646 15.61)"/><path fill="#F32C50" d="M117.715 19.062l-12.032 19.009-6.031-3.37 12.032-19.01z"/><path fill="#CDCED0" d="M123.413 22.925v2.145l-11.781 18.955v-2.204z"/><path fill="#A0A0A1" d="M111.632 41.82v2.205l-5.906-3.32.03-2.205z"/><path fill="#FAFBFD" d="M123.413 22.925L111.632 41.82l-5.876-3.32 11.781-18.897z"/><path fill="#F32C50" d="M129.289 26.246L117.508 45.17l-5.876-3.35 11.781-18.896z"/><path fill="#C7391C" d="M129.289 26.246v2.174l-11.781 18.926V45.17z"/><path fill="url(#c)" d="M12.153 25.92v2.175l-5.876-3.321V22.57z" transform="translate(105.354 19.251)"/><path fill="#CDCED0" d="M135.135 29.566l.06 2.175-11.812 18.955v-2.204z"/><path fill="#A0A0A1" d="M123.383 48.492v2.204l-5.875-3.35V45.17z"/><path fill="#FAFBFD" d="M135.135 29.566l-11.752 18.926-5.875-3.32 11.78-18.926z"/><path fill="#C7391C" d="M141.779 32.976l.03 2.194-11.8 19.39v-2.254z"/><path fill="url(#c)" d="M5.97 23.169v2.254L.055 22.026v-2.254z" transform="translate(124.038 29.137)"/><path fill="#F32C50" d="M141.779 32.976l-11.77 19.33-5.916-3.397 11.77-19.36z"/><path fill="#CDCED0" d="M147.428 35.851l-.03 2.236-11.801 19.492v-2.266z"/><path fill="#A0A0A1" d="M135.597 55.313v2.266l-5.885-3.445v-2.266z"/><path fill="#FAFBFD" d="M147.428 35.851l-11.831 19.462-5.885-3.445 11.77-19.432z"/><path fill="#C7391C" d="M153.535 39.396v2.206l-11.8 19.492v-2.267z"/><path fill="url(#c)" d="M6.279 22.926v2.267L.364 21.778V19.51z" transform="translate(135.456 35.901)"/><path fill="#F32C50" d="M153.535 39.396l-11.8 19.431-5.916-3.415 11.831-19.461z"/><path fill="#CDCED0" d="M159.124 42.269v2.158l-11.8 19.097v-2.246z"/><path fill="#A0A0A1" d="M147.569 61.615v2.246l-5.885-3.37v-2.217z"/><path fill="#FAFBFD" d="M159.124 42.269l-11.8 19.009-5.886-3.34 11.8-19.01zM104.038 96.29V83.705c-.156-2.736-1.62-5.239-3.95-6.75l-5.069-2.87c-2.177-1.253-3.95-.245-3.95 2.229v12.583l-1.803-1.008V75.307c0-3.604 2.581-5.04 5.753-3.268l5.1 2.902c3.394 2.172 5.53 5.801 5.754 9.773v12.583l-1.835-1.008z"/><path fill="#808182" d="M109.39 151.281l13.167-7.67-6.599-49.973-13.167 7.64z"/><path fill="url(#c)" d="M53.68 19.754l6.598 49.974-6.539 3.805-6.985-49.765z" transform="translate(62.278 73.883)"/><path fill="#EE9547" d="M109.033 97.651l6.985 49.765-6.629 3.865-6.598-50.003z"/><path fill="#F32C50" d="M102.79 101.278l13.168-7.64-33.646-19.443-13.168 7.64z"/><path fill="#EE9547" d="M113.788 93.578L82.52 75.503 71.7 81.776 103 99.851z"/><path fill="#F32C50" d="M62.278 124.08l47.111 27.201-3.412-25.859-3.186-24.144-33.647-19.442z"/><path fill="#A0A0A1" d="M99.937 34.653v2.279l-6-3.434v-2.28z"/><path fill="#FAFBFD" d="M93.69 103.023V90.477c-.142-2.739-1.61-5.246-3.95-6.746l-5.1-2.9c-2.208-1.251-3.981-.244-3.981 2.26v12.576l-1.773-1.13V82.052c0-3.571 2.581-5.036 5.754-3.235l5.1 2.9c3.39 2.174 5.525 5.8 5.754 9.768v12.576l-1.804-1.038z"/></g></svg>