<svg xmlns="http://www.w3.org/2000/svg" width="200" height="163"><defs><linearGradient id="a" x1="22.196%" x2="77.774%" y1="91.623%" y2="8.368%"><stop offset="51.34%" stop-color="#FCEADA"/><stop offset="61.56%" stop-color="#FDE3CD"/><stop offset="94.2%" stop-color="#FFCFA5"/></linearGradient><linearGradient id="b" x1="-1.581%" x2="100.028%" y1="50.567%" y2="50.567%"><stop offset="0%" stop-color="#FE9C3F"/><stop offset="1.201%" stop-color="#FE9A3F"/><stop offset="28.33%" stop-color="#FE7A48"/><stop offset="54.45%" stop-color="#FE634E"/><stop offset="78.9%" stop-color="#FE5552"/><stop offset="100%" stop-color="#FE5053"/></linearGradient><linearGradient id="c" x1="-.074%" x2="99.945%" y1="50.009%" y2="50.009%"><stop offset="0%" stop-color="#FE9B40"/><stop offset="85.25%" stop-color="#FEC735"/></linearGradient></defs><g fill="none"><path fill="#FFCFA5" d="M195.922 108.667c2.136.711 3.56 2.652 3.56 4.85 0 2.2-1.424 4.205-3.56 4.852l-62.653 36.287c-5.243 2.652-11.457 2.652-16.764 0L3.625 89.521c-4.66-2.652-4.725-6.986 0-9.703l62.653-36.287a18.26 18.26 0 0 1 16.764 0l112.88 65.136z"/><path fill="#FFCFA5" d="M195.922 115.006c2.136.711 3.56 2.652 3.56 4.85 0 2.2-1.424 4.205-3.56 4.852l-62.653 36.287c-5.243 2.652-11.457 2.652-16.764 0L3.625 95.86c-4.66-2.652-4.725-6.986 0-9.703L66.278 49.87a18.26 18.26 0 0 1 16.764 0l112.88 65.136z" opacity=".423"/><path fill="#FFCFA5" d="M98.382 1.164l44.466 24.644s-3.754-2.264-7.897 1.747c0 0-1.812 2.716-1.812 5.304L88.026 7.827s-.518-3.3 2.848-6.34c3.365-3.04 7.508-.323 7.508-.323z"/><path fill="#FE734B" d="M145.76 36.74a8.57 8.57 0 0 0 .907-3.881c0-4.27-3.042-7.762-6.796-7.762-2.848 0-5.308 2.005-6.343 4.916l12.233 6.727z"/><path fill="url(#a)" d="M0 .065v86.998l45.049 25.161V25.097z" transform="translate(88.026 7.762)"/><path fill="#FCEADA" d="M88.026 94.825l4.078 10.996 4.919-5.886zm8.997 5.045l4.077 10.93 4.92-5.886zm8.997 4.98l4.077 10.996 4.92-5.886zm8.996 5.046l4.078 10.931 4.919-5.886zm8.997 4.98l4.078 10.996 4.983-5.886z"/><path fill="#FFB187" d="M116.634 54.98v-3.04c-1.747-1.294-3.365-2.781-4.53-4.528.258-1.229.517-2.458.776-3.751 1.23 1.746 2.783 3.428 4.466 4.527.583.324 2.46 1.23 2.395-.388-.13-1.617-1.618-3.169-2.718-4.333-2.525-2.523-4.79-5.628-4.79-9.25 0-2.587 1.683-4.657 4.466-3.363v-3.04c.841.517 1.683 1.1 2.524 1.617v2.846c1.489.97 2.783 2.263 3.82 3.622-.26 1.229-.519 2.393-.778 3.622a23.543 23.543 0 0 0-3.883-3.752c-.647-.452-2.136-.905-2.071.389.13 1.746 2.006 3.428 3.106 4.592 2.395 2.587 4.337 5.563 4.402 9.12.064 2.717-1.877 4.528-4.66 3.364v3.299l-2.525-1.553z"/><path d="M105.955 28.848c-.324 0-.648-.064-.971-.258l-9.45-5.24c-.906-.517-1.295-1.681-.777-2.652.518-.905 1.683-1.293 2.654-.776l9.45 5.24c.906.517 1.294 1.681.777 2.651-.324.712-.971 1.035-1.683 1.035zm0 9.767c-.324 0-.648-.064-.971-.258l-9.45-5.24c-.906-.517-1.295-1.681-.777-2.652.518-.905 1.683-1.293 2.654-.776l9.45 5.24c.906.517 1.294 1.681.777 2.652-.324.711-.971 1.034-1.683 1.034zm0 9.832c-.324 0-.648-.064-.971-.259l-9.45-5.239c-.906-.517-1.295-1.682-.777-2.652.518-.905 1.683-1.293 2.654-.776l9.45 5.24c.906.517 1.294 1.681.777 2.651a1.866 1.866 0 0 1-1.683 1.035zm17.735 19.599c-.324 0-.648-.065-.972-.259l-27.184-15.07c-.906-.518-1.295-1.682-.777-2.653.518-.905 1.683-1.293 2.654-.776l27.184 15.071c.907.518 1.295 1.682.777 2.652a1.866 1.866 0 0 1-1.683 1.035zm0 9.767c-.324 0-.648-.065-.972-.259l-27.184-15.07c-.906-.518-1.295-1.682-.777-2.653.518-.905 1.683-1.293 2.654-.776l27.184 15.071c.907.518 1.295 1.682.777 2.652a1.866 1.866 0 0 1-1.683 1.035zm0 9.767c-.324 0-.648-.065-.972-.259l-27.184-15.07c-.906-.518-1.295-1.682-.777-2.653.518-.905 1.683-1.293 2.654-.776l27.184 15.071c.907.518 1.295 1.682.777 2.652-.323.712-.97 1.035-1.683 1.035zm0 9.767c-.324 0-.648-.064-.972-.259l-27.184-15.07c-.906-.518-1.295-1.682-.777-2.653.518-.905 1.683-1.293 2.654-.776l27.184 15.071c.907.518 1.295 1.682.777 2.652-.323.712-.97 1.035-1.683 1.035zm-10.162 4.14c-.324 0-.648-.065-.971-.259L95.599 91.85c-.906-.517-1.295-1.682-.777-2.652.518-.905 1.683-1.293 2.654-.776l16.958 9.444c.906.517 1.294 1.681.776 2.652-.323.646-.97.97-1.682.97z" fill="#FFB187" opacity=".7"/><path fill="url(#b)" d="M34.11 16.3C27.379 4.075 16.246-2.587 9.19 1.294c-.711.388-1.358.905-1.94 1.423-.066.064-.13.129-.13.129l-.13.13-.13.129-.129.13-.13.128-.129.13-.129.13-.13.129-.129.129a2714546.696 2714546.696 0 0 1-.259.259l-.13.129-.129.13-.13.129-.129.13-.129.129-.13.129-.129.13-.13.129-.129.129c-5.243 4.98-4.919 16.753 1.165 27.813 6.732 12.16 17.864 18.888 24.92 15.007.711-.388 1.359-.906 1.941-1.423a414113077.035 414113077.035 0 0 1 .259-.259l.13-.13.129-.129.13-.129.129-.13.13-.129.129-.13.13-.128.129-.13.129-.13.13-.129.129-.129.13-.13.129-.129.13-.129.129-.13.13-.129.129-.13.13-.129c5.307-5.045 4.918-16.817-1.166-27.813zM10.615 29.237C6.925 22.51 5.63 15.524 6.86 10.673L23.3 41.979c-4.466-1.876-9.256-6.468-12.686-12.742zm3.948-20.764c4.596 1.747 9.58 6.404 13.14 12.872 3.818 6.921 5.048 14.101 3.689 18.952L14.563 8.473z" transform="translate(58.9 14.23)"/><path fill="url(#c)" d="M30.485 19.663C23.754 7.503 12.621.776 5.566 4.657c-7.055 3.881-7.314 16.882-.582 29.107 6.731 12.225 17.864 18.888 24.919 15.007 7.055-3.881 7.314-16.947.582-29.108zM6.925 32.665C1.749 23.22 1.36 13.325 5.762 9.379l19.417 36.804c-5.566.97-13.269-4.527-18.252-13.518zm21.425 12.16L8.867 7.891c5.631-1.164 13.528 4.334 18.576 13.519 5.243 9.508 5.567 19.663.907 23.415z" transform="translate(58.9 14.23)"/></g></svg>