<svg xmlns="http://www.w3.org/2000/svg" width="200" height="153"><defs><linearGradient id="a" x1=".107%" x2="100.005%" y1="50.004%" y2="50.004%"><stop offset="0%" stop-color="#FE9442"/><stop offset="100%" stop-color="#FE724B"/></linearGradient><linearGradient id="b" x1="49.985%" x2="49.985%" y1="99.937%" y2="-.06%"><stop offset="0%" stop-color="#FEC735"/><stop offset="100%" stop-color="#FE5053"/></linearGradient><linearGradient id="c" x1=".107%" x2="100.005%" y1="50.308%" y2="50.308%"><stop offset="0%" stop-color="#FE9442"/><stop offset="100%" stop-color="#FE724B"/></linearGradient><linearGradient id="d" x1="49.985%" x2="49.985%" y1="99.919%" y2="-.078%"><stop offset="0%" stop-color="#FEC735"/><stop offset="100%" stop-color="#FE5053"/></linearGradient><linearGradient id="e" x1="50.024%" x2="50.024%" y1="100.057%" y2="-.005%"><stop offset="0%" stop-color="#FE5053"/><stop offset="100%" stop-color="#FEC735"/></linearGradient><linearGradient id="f" x1="-.15%" x2="99.801%" y1="49.781%" y2="49.781%"><stop offset="0%" stop-color="#FEAC3C"/><stop offset="100%" stop-color="#FE5053"/></linearGradient><linearGradient id="g" x1="-.032%" x2="99.97%" y1="50.057%" y2="50.057%"><stop offset="26.23%" stop-color="#FE8147"/><stop offset="100%" stop-color="#FEC735"/></linearGradient><linearGradient id="h" x1="-.126%" x2="99.772%" y1="50.289%" y2="50.289%"><stop offset="0%" stop-color="#FE9442"/><stop offset="100%" stop-color="#FE724B"/></linearGradient><linearGradient id="i" x1="50.015%" x2="50.015%" y1="100.079%" y2=".082%"><stop offset="0%" stop-color="#FEC735"/><stop offset="100%" stop-color="#FE5053"/></linearGradient></defs><g fill="none" transform="translate(0 -1)"><path fill="#FFCFA5" d="M195.922 99.647c2.136.712 3.56 2.653 3.56 4.853 0 2.2-1.424 4.206-3.56 4.853l-62.653 36.3c-5.243 2.653-11.457 2.653-16.764 0L3.625 80.494c-4.66-2.653-4.725-6.988 0-9.706l62.653-36.3a18.254 18.254 0 0 1 16.764 0l112.88 65.16z"/><path fill="#FFCFA5" d="M195.922 105.988c2.136.712 3.56 2.653 3.56 4.853 0 2.2-1.424 4.206-3.56 4.853l-62.653 36.3c-5.243 2.653-11.457 2.653-16.764 0L3.625 86.835c-4.66-2.653-4.725-6.988 0-9.706l62.653-36.3a18.254 18.254 0 0 1 16.764 0l112.88 65.16z" opacity=".423"/><path fill="#F32C50" d="M130.68 56.941l-22.46 13.07v6.342l45.113 26.012 22.46-13.07v-6.342"/><path fill="url(#a)" d="M40.583 15.659c3.754 2.135 3.754 5.63.064 7.765s-9.708 2.135-13.463 0c-3.689-2.136-3.754-5.63-.064-7.765 3.754-2.2 9.773-2.2 13.463 0z" transform="translate(108.09 56.941)"/><path fill="#FEC736" d="M165.89 79.976c-2.848 1.618-2.783 4.336 0 5.953l-7.508 4.336c-2.848-1.618-7.443-1.618-10.291 0l-30.033-17.341c2.848-1.618 2.783-4.336-.064-5.953l7.508-4.336c2.848 1.618 7.443 1.618 10.29 0l30.098 17.341zm-30.615.389c3.754 2.135 9.709 2.135 13.463 0 3.69-2.136 3.69-5.63-.065-7.765-3.69-2.135-9.709-2.135-13.463 0-3.624 2.135-3.624 5.63.065 7.765z"/><path fill="url(#b)" d="M22.589 0l45.113 26.012-22.46 13.07L.13 13.071 22.59 0zm27.767 33.324l7.508-4.336c-2.848-1.617-2.848-4.335 0-5.953L27.832 5.695c-2.848 1.617-7.444 1.617-10.292 0l-7.508 4.334c2.848 1.618 2.848 4.336.065 5.953L40.13 33.324c2.784-1.618 7.38-1.618 10.227 0z" transform="translate(108.09 56.941)"/><path fill="#FE734B" d="M153.333 96.024v6.34l22.395-13.07v-6.341z"/><path fill="#F32C50" d="M130.68 48.141l-22.46 13.07v6.342l45.113 26.012 22.46-13.07v-6.342"/><path fill="url(#c)" d="M40.583 15.853c3.754 2.135 3.754 5.63.064 7.765s-9.708 2.135-13.463 0c-3.689-2.136-3.754-5.63-.064-7.765 3.754-2.135 9.773-2.135 13.463 0z" transform="translate(108.09 47.882)"/><path fill="#FEC736" d="M165.89 71.176c-2.848 1.618-2.783 4.336 0 5.953l-7.508 4.336c-2.848-1.618-7.443-1.618-10.291 0l-30.033-17.341c2.848-1.618 2.783-4.336-.064-5.953l7.508-4.336c2.848 1.618 7.443 1.618 10.29 0l30.098 17.341zm-30.615.389c3.754 2.135 9.709 2.135 13.463 0 3.69-2.136 3.69-5.63-.065-7.765-3.69-2.135-9.709-2.135-13.463 0-3.624 2.135-3.624 5.565.065 7.765z"/><path fill="url(#d)" d="M22.589.259L67.702 26.27l-22.46 13.07L.13 13.33 22.59.26zm27.767 33.323l7.508-4.335c-2.848-1.618-2.848-4.335 0-5.953L27.832 5.953c-2.848 1.618-7.444 1.618-10.292 0l-7.508 4.335c2.848 1.618 2.848 4.336.065 5.953L40.13 33.582c2.784-1.617 7.38-1.617 10.227 0z" transform="translate(108.09 47.882)"/><path fill="#FE734B" d="M153.333 87.224v6.34l22.395-13.07v-6.341z"/><path fill="url(#e)" d="M132.362 42.835C119.094 18.83 97.087 5.63 83.236 13.265c-.13.064-.194.13-.323.194l-12.945 7.247 3.624 6.212c-2.977 11.582-.194 27.953 8.48 43.611 9.255 16.76 22.847 28.277 34.886 31.06l2.783 4.787 10.615-5.952c.259-.13.518-.26.841-.389 13.916-7.57 14.37-33.259 1.165-57.2z"/><path fill="#F32C50" d="M108.867 91.494l33.075-16.823c-.389-9.706-3.56-20.965-9.58-31.836-.064-.13-.194-.323-.258-.453l-40.26 19.67 17.023 29.442z" opacity=".2"/><path fill="url(#f)" d="M106.278 17.859v-.13L106.214 7.7l-15.47-2.912V15.4c-.453 2.524 2.59 5.241 6.861 6.018 4.272.776 8.156-.583 8.609-3.106 0-.13 0-.26.064-.324v-.13z"/><path fill="#FEC736" d="M126.084 33.13l-23.948 11.129 6.278 9.706 23.625-11.583a78.105 78.105 0 0 0-5.955-9.253z" opacity=".3"/><path fill="url(#g)" d="M120.906 49.112c13.269 24.006 12.751 49.63-1.1 57.264-13.851 7.636-35.858-5.564-49.126-29.57-13.27-24.006-12.751-49.63 1.1-57.266 13.851-7.635 35.858 5.63 49.126 29.57z"/><ellipse cx="94.693" cy="63.608" fill="#FFF" rx="23.041" ry="41.54" transform="rotate(-28.928 94.693 63.608)"/><path fill="#FEC736" d="M92.88 58.494l.712-14.235L96.7 60.953l-2.006 2.653zm1.813 5.112l-3.82-2.524-11.39-4.14 12.491 8.152z"/><ellipse cx="94.693" cy="63.608" fill="#F32C50" rx="3.107" ry="5.629" transform="rotate(-28.928 94.693 63.608)"/><path fill="#F32C50" d="M98.447 21.482c3.948.453 7.314-.906 7.767-3.235 0-.13 0-.259.064-.323v-.195L106.214 7.7l-7.767-1.488v15.27z" opacity=".3"/><ellipse cx="98.452" cy="6.234" fill="#FEC736" rx="4.66" ry="7.894" transform="rotate(-79.338 98.452 6.234)"/><path fill="#D7D7E0" d="M92.75 30.476v9.836l1.813 1.23V31.77zm-20.905 0l-.906 1.683 4.271 6.082.777-1.747zM68.35 50.212v2.135l5.89 3.041v-2.135zm44.271 1.876l.971 1.812-6.472 3.818-1.036-1.747zm8.609 26.271v2.33l-7.832-4.207v-2.264zm-10.097 11.388l-1.165 1.812 4.983 7.247 1.36-1.488zm-18.512-2.459l1.942 1.488v7.053l-1.942-1.488zM80.647 70.853l1.165 1.812-4.854 2.847-1.1-1.747z"/><path fill="#F32C50" d="M51.327 62.247l-22.46 13.07v6.342l45.114 26.012L96.44 94.6v-6.341"/><path fill="url(#h)" d="M40.906 15.788c3.754 2.136 3.754 5.63.065 7.765-3.69 2.135-9.709 2.135-13.463 0-3.69-2.135-3.754-5.63-.065-7.765 3.69-2.135 9.71-2.135 13.463 0z" transform="translate(28.479 62.118)"/><path fill="#FEC736" d="M86.537 85.347c-2.848 1.618-2.783 4.335 0 5.953l-7.508 4.335c-2.848-1.617-7.443-1.617-10.291 0L38.77 78.295c2.848-1.619 2.783-4.336-.064-5.954l7.508-4.335c2.847 1.618 7.443 1.618 10.29 0l30.033 17.341zm-30.55.388c3.754 2.136 9.709 2.136 13.463 0 3.69-2.135 3.69-5.63-.065-7.764-3.69-2.136-9.709-2.136-13.463 0-3.689 2.135-3.689 5.564.065 7.764z"/><path fill="url(#i)" d="M22.848.13L67.96 26.14 45.5 39.21.389 13.2 22.848.13zm27.767 33.388l7.508-4.336c-2.848-1.617-2.848-4.335 0-5.953L28.091 5.89c-2.848 1.617-7.444 1.617-10.292 0l-7.508 4.335c2.848 1.617 2.848 4.335.065 5.952l30.032 17.342c2.784-1.618 7.379-1.618 10.227 0z" transform="translate(28.479 62.118)"/><path fill="#FE734B" d="M73.98 101.33v6.405l22.46-13.07v-6.341z"/></g></svg>