<svg version="1" xmlns="http://www.w3.org/2000/svg" width="358.667" height="358.667" viewBox="0 0 269 269"><path d="M134 5.7c-.1 1.8-.3 3.6-.4 4-.1.5-.6 3.3-1 6.3-5 34.9-21.6 66.5-46.2 88-3.8 3.4-15.7 11.1-21.3 14-9.6 4.8-26.3 10.1-36.1 11.5-2.5.3-5.2.8-6 1-.8.2-3.4.5-5.7.7-5.4.2-5.7 1.8-.4 1.8 2.1 0 6.3.5 9.2 1 3 .6 6.8 1.3 8.4 1.6 12.2 2.1 34.5 12.1 45.4 20.2 29.1 21.9 49.2 60.7 53.7 103.7.7 6 1.4 7.2 1.5 2.4.1-3.6.1-3.8 2.5-16.9 1.6-8.8 6.4-25.8 9.1-32 10.7-24.6 20.4-38.4 38.3-54.1 4.3-3.8 15.2-10.5 22.5-13.9 6.8-3.2 7.8-3.7 14-5.9 4.9-1.8 19.6-5 26.3-5.7 3.4-.4 6.2-1 6.2-1.4 0-.4-2.4-1-5.2-1.3-6.8-.8-11.7-1.5-14.8-2.2-1.4-.3-3.5-.8-4.7-1.1-1.2-.2-6.2-1.8-11-3.5-46-16.1-75.4-57-83.3-115.9-.6-4.2-.8-4.7-1-2.3z"/></svg>