<?xml version="1.0" encoding="UTF-8"?> <svg xmlns="http://www.w3.org/2000/svg" xmlns:xlink="http://www.w3.org/1999/xlink" width="25" height="25" viewBox="0 0 25 25"> <defs> <path id="a" d="M10.745 74.219c1.086 5.556 4.171 9.065 10.034 10.036a.244.244 0 0 1 .217.183.72.72 0 0 1 .007.069c-.028.15-.117.227-.223.236-5.864.97-8.95 4.48-10.034 10.039a.244.244 0 0 1-.234.218c-.15-.012-.243-.104-.254-.22-1.083-5.557-4.17-9.066-10.033-10.037a.244.244 0 0 1-.218-.184.682.682 0 0 1-.007-.068c.03-.15.117-.226.223-.235 5.864-.97 8.953-4.48 10.035-10.04a.244.244 0 0 1 .214-.216c.17.01.262.102.273.219z"></path> </defs> <g fill="none" fill-rule="evenodd" transform="translate(2 -72)"> <use fill="#ff6549" xlink:href="#a"></use> </g> </svg> 